<svg xmlns="http://www.w3.org/2000/svg" width="512" height="512" viewBox="0 0 512 512" version="1.1">
	<path d="M 247.251 66.529 C 235.096 69.839, 225.064 77.999, 219.717 88.926 L 216.500 95.500 216.500 162.552 L 216.500 229.604 220.266 237.223 C 224.613 246.019, 230.987 252.373, 239.808 256.705 L 245.500 259.500 286.598 259.791 L 327.696 260.083 354.090 291.791 C 385.635 329.689, 384.992 329, 388.841 329 C 397.757 329, 398 327.996, 398 291.136 L 398 260.172 414.250 259.836 C 430.024 259.510, 430.692 259.409, 437.051 256.395 C 448.782 250.837, 457.731 239.230, 460.079 226.532 C 460.707 223.135, 460.976 197.822, 460.793 159.292 C 460.501 97.707, 460.492 97.482, 458.236 92 C 453.593 80.723, 445.277 72.407, 434 67.764 L 428.500 65.500 340.500 65.300 C 266.865 65.132, 251.643 65.333, 247.251 66.529 M 247.422 83.410 C 242.858 85.410, 237.174 90.765, 234.691 95.405 C 232.514 99.474, 232.498 99.894, 232.220 160.784 C 232.034 201.560, 232.295 223.380, 232.998 225.991 C 234.465 231.441, 239.754 238.029, 245.047 241 L 249.500 243.500 292 244 C 315.375 244.275, 335.175 244.873, 336 245.330 C 336.825 245.786, 347.175 257.786, 359 271.997 L 380.500 297.834 381 273.328 L 381.500 248.823 384.306 246.412 C 387.047 244.055, 387.525 244, 405.190 244 C 416.264 244, 424.805 243.539, 427.236 242.811 C 432.648 241.190, 440.476 233.945, 442.459 228.722 C 443.879 224.981, 444.029 217.312, 443.781 161.421 L 443.500 98.342 440.474 93.447 C 438.598 90.415, 435.585 87.402, 432.552 85.526 L 427.658 82.500 339.079 82.281 C 266.582 82.101, 249.941 82.306, 247.422 83.410 M 279.881 108.007 C 278.991 108.527, 277.699 110.313, 277.010 111.976 C 275.543 115.517, 277.033 120.412, 280.071 122.038 C 281.127 122.603, 296.787 123, 318.014 123 L 354.159 123 353.477 126.250 C 352.211 132.284, 347.294 142.790, 341.931 150.918 C 338.999 155.363, 336.282 159, 335.895 159 C 334.919 159, 329.825 149.696, 326.939 142.643 C 323.095 133.246, 317.860 130.636, 312.354 135.372 C 310.272 137.163, 309.620 138.594, 309.695 141.214 C 309.804 145.084, 314.974 156.903, 320.630 166.214 L 324.344 172.327 316.922 179.429 C 312.840 183.335, 303.875 190.741, 297 195.887 C 284.384 205.330, 281.935 208.211, 282.779 212.625 C 283.348 215.601, 287.483 219, 290.534 219 C 294.387 219, 318.357 201.337, 328.462 191.051 C 331.192 188.273, 333.835 186, 334.336 186 C 334.837 186, 339.434 190.003, 344.551 194.895 C 355.045 204.927, 373.762 218, 377.630 218 C 380.419 218, 386 213.081, 386 210.624 C 386 207.232, 383.402 203.804, 378.587 200.841 C 370.388 195.796, 358.977 186.674, 352.113 179.679 L 345.727 173.170 349.248 168.835 C 358.997 156.833, 367 141.246, 369.330 129.720 L 370.587 123.500 383.014 123.217 C 394.118 122.965, 395.683 122.707, 397.720 120.793 C 400.856 117.847, 400.777 112.686, 397.545 109.455 L 395.091 107 338.295 107.030 C 304.465 107.049, 280.845 107.443, 279.881 108.007 M 77.665 185.447 C 69.260 188.902, 64.227 192.707, 59.401 199.252 C 51.179 210.401, 51.500 207.101, 51.500 280.500 L 51.500 345.500 53.823 351.252 C 58.243 362.200, 67.107 370.874, 78.406 375.311 C 82.441 376.895, 86.660 377.408, 98.699 377.776 L 113.897 378.240 114.199 410.017 C 114.475 439.117, 114.654 441.963, 116.324 443.807 C 118.646 446.371, 122.181 447.262, 125.312 446.072 C 126.695 445.546, 139.904 430.543, 155.631 411.637 L 183.500 378.133 220.114 378.067 C 240.251 378.030, 259.118 377.547, 262.040 376.992 C 274.980 374.538, 286.565 365.759, 292.283 354.074 L 295.500 347.500 295.794 309.966 L 296.088 272.432 293.567 270.063 C 290.420 267.106, 285.495 267.061, 282.590 269.964 C 280.568 271.984, 280.484 273.213, 280 307.776 C 279.517 342.250, 279.422 343.645, 277.284 347.643 C 274.482 352.882, 268.157 358.337, 263.142 359.839 C 260.479 360.637, 246.633 361, 218.856 361 C 184.801 361, 178.113 361.233, 176.333 362.480 C 175.171 363.293, 164.608 375.477, 152.860 389.554 L 131.500 415.149 131 390.600 C 130.514 366.722, 130.438 365.989, 128.225 363.776 C 126.040 361.590, 125.124 361.480, 105.142 361 L 84.334 360.500 79.443 357.474 C 76.417 355.601, 73.399 352.581, 71.526 349.553 L 68.500 344.658 68.219 281.579 C 67.907 211.451, 67.717 213.687, 74.586 206.614 C 81.877 199.107, 77.762 199.560, 144 198.969 C 176.725 198.677, 203.595 198.340, 203.711 198.219 C 208.716 193.020, 209.269 189.883, 205.927 185.635 L 203.855 183 143.677 183.024 L 83.500 183.047 77.665 185.447 M 170.288 221.017 C 167.591 222.103, 167.389 222.500, 139.385 281.799 C 124.185 313.985, 117 330.267, 117 332.527 C 117 338.377, 124.675 342.152, 129.457 338.655 C 130.469 337.915, 134.558 330.377, 138.544 321.905 L 145.791 306.500 173.646 306.250 L 201.500 305.999 208 320.152 C 211.575 327.936, 215.553 335.586, 216.839 337.152 C 219.161 339.980, 222.734 340.807, 226.455 339.379 C 228.206 338.707, 231 333.977, 231 331.685 C 231 328.651, 180.969 224.467, 178.448 222.250 C 175.730 219.861, 173.862 219.579, 170.288 221.017 M 163.951 268.136 C 158.753 279.210, 154.350 288.659, 154.167 289.135 C 153.983 289.611, 162.646 290, 173.417 290 C 184.188 290, 193 289.602, 193 289.116 C 193 288.062, 175.095 249.832, 174.095 248.751 C 173.714 248.339, 169.149 257.062, 163.951 268.136" stroke="none" fill="#000000" fill-rule="evenodd"/>
</svg>