<svg xmlns="http://www.w3.org/2000/svg" width="512" height="512" viewBox="0 0 512 512" version="1.1">
	<path d="M 308.500 52.632 C 300.250 53.450, 276.761 55.617, 256.302 57.447 C 215.539 61.092, 213.709 61.518, 210.822 68.041 L 209.512 71 171.999 71 L 134.487 71 106.243 99.256 L 78 127.513 78 278.184 L 78 428.855 80.635 430.927 C 83.048 432.825, 84.600 433, 99.051 433 L 114.833 433 115.166 445.091 C 115.478 456.389, 115.655 457.306, 117.861 459.091 C 120.158 460.948, 123.797 461, 252.111 461 C 382.667 461, 384.020 460.980, 386 459 C 387.980 457.020, 388 455.667, 388 322.200 C 388 237.140, 388.355 187.045, 388.963 186.437 C 389.492 185.908, 392.398 176.312, 395.421 165.113 C 398.443 153.914, 401.178 144.489, 401.498 144.169 C 402.118 143.549, 417.249 141.915, 417.748 142.414 C 417.910 142.577, 417.276 145.904, 416.339 149.809 C 414.867 155.943, 414.247 157.069, 411.784 158.090 C 407.683 159.788, 405.470 163.085, 403.470 170.471 C 401.794 176.663, 401.794 177.173, 403.472 181.565 C 405.621 187.193, 409.728 189.991, 415.846 189.996 C 424.294 190.004, 429.539 183.862, 430.701 172.604 C 431.158 168.179, 430.871 166.446, 429.214 163.639 L 427.161 160.159 430.665 147.329 C 433.931 135.374, 434.098 134.060, 433.120 128.036 C 432.543 124.480, 431.234 120.430, 430.212 119.036 C 428.288 116.410, 345.525 57.549, 338.572 53.861 C 333.373 51.104, 326.661 50.829, 308.500 52.632 M 274.801 68.871 C 246.367 71.452, 222.769 73.898, 222.361 74.306 C 221.953 74.714, 222.267 75.672, 223.060 76.435 C 223.852 77.199, 243.820 91.363, 267.434 107.912 C 296.214 128.080, 311.201 138, 312.893 138 C 317.402 138, 417.456 128.983, 418.937 128.443 C 420.054 128.036, 419.831 127.405, 417.937 125.610 C 412.418 120.382, 331.903 64.942, 329.294 64.573 C 327.757 64.356, 303.236 66.291, 274.801 68.871 M 143.800 108.590 C 143.501 133.060, 143.488 133.189, 141.139 135.090 C 138.963 136.851, 136.913 137, 114.889 137 L 91 137 91 278 L 91 419 214.250 419 L 337.500 419 337.349 305.312 L 337.199 191.624 325.849 189.419 C 301.875 184.760, 280.892 178.670, 260 170.308 C 237.335 161.236, 225.143 153.516, 220.926 145.567 L 218.600 141.183 224.356 119.480 C 227.521 107.544, 229.974 97.682, 229.806 97.565 C 229.637 97.448, 225.801 94.776, 221.279 91.627 C 216.758 88.479, 212.794 85.475, 212.470 84.952 C 212.117 84.380, 198.358 84, 177.991 84 L 144.099 84 143.800 108.590 M 115.237 108.263 C 107.407 116.107, 101 122.857, 101 123.263 C 101 123.668, 107.525 124, 115.500 124 L 130 124 130 109 C 130 100.750, 129.882 94, 129.737 94 C 129.592 94, 123.067 100.418, 115.237 108.263 M 241.624 106.817 C 240.918 107.990, 233 138.050, 233 139.558 C 233 141.488, 239.844 146.354, 249.220 151.092 C 276.937 165.096, 320.673 177.119, 354.222 179.957 C 365.554 180.916, 375.998 180.335, 377.681 178.652 C 378.496 177.837, 387.077 145.743, 386.605 145.272 C 386.412 145.079, 371.042 146.288, 352.450 147.960 C 313.162 151.493, 309.852 151.574, 304.500 149.129 C 302.300 148.124, 287.345 138.039, 271.268 126.718 C 255.190 115.397, 241.850 106.441, 241.624 106.817 M 351 310.637 C 351 424.481, 350.946 427.845, 349.088 430.139 L 347.177 432.500 238.088 432.763 L 129 433.026 129 440.513 L 129 448 252 448 L 375 448 374.999 320.750 L 374.997 193.500 362.999 193.498 L 351 193.496 351 310.637 M 133.445 194.959 C 132.315 195.417, 129.983 197.394, 128.263 199.353 C 124.411 203.741, 123.659 208.101, 124.146 223.219 C 124.560 236.067, 126.079 239.965, 132.035 243.465 C 135.109 245.270, 137.214 245.500, 150.677 245.500 C 167.536 245.500, 168.969 245.035, 173.750 238.010 C 175.830 234.954, 176 233.600, 175.998 220.102 C 175.997 203.573, 175.029 200.230, 169.102 196.270 C 165.931 194.152, 164.695 194.004, 150.602 194.063 C 142.296 194.098, 134.575 194.501, 133.445 194.959 M 138 219.469 L 138 232 150.531 232 L 163.062 232 162.781 219.750 L 162.500 207.500 150.250 207.219 L 138 206.938 138 219.469 M 196.655 214.829 C 194.228 217.510, 194.526 222.554, 197.223 224.443 C 199.163 225.802, 205.836 226, 249.723 226 C 298.667 226, 300.053 225.947, 302 224 C 303.100 222.900, 304 220.875, 304 219.500 C 304 218.125, 303.100 216.100, 302 215 C 300.052 213.052, 298.667 213, 249.155 213 C 201.167 213, 198.217 213.103, 196.655 214.829 M 131.299 270.923 C 125.394 274.590, 124.500 277.690, 124.500 294.500 C 124.500 308.348, 124.674 309.780, 126.766 313.144 C 130.460 319.084, 133.655 320.001, 150.651 319.996 C 163.704 319.993, 165.894 319.752, 168.759 318.005 C 175.103 314.138, 175.992 311.274, 175.996 294.700 C 176 278.781, 175.485 276.647, 170.517 272 C 167.917 269.568, 167.392 269.492, 151.172 269.217 C 135.986 268.960, 134.215 269.112, 131.299 270.923 M 138 294.531 L 138 307.062 150.250 306.781 L 162.500 306.500 162.781 294.250 L 163.062 282 150.531 282 L 138 282 138 294.531 M 196.655 289.829 C 194.410 292.309, 194.570 296.570, 197 299 C 198.947 300.947, 200.333 301, 248.865 301 C 297.798 301, 298.780 300.961, 301.365 298.927 C 304.347 296.582, 304.730 293.488, 302.443 290.223 L 300.887 288 249.598 288 C 201.181 288, 198.217 288.102, 196.655 289.829 M 131.299 345.923 C 125.394 349.590, 124.500 352.690, 124.500 369.500 C 124.500 383.348, 124.674 384.780, 126.766 388.144 C 130.460 394.084, 133.655 395.001, 150.651 394.996 C 163.704 394.993, 165.894 394.752, 168.759 393.005 C 175.103 389.138, 175.992 386.274, 175.996 369.700 C 176 353.781, 175.485 351.647, 170.517 347 C 167.917 344.568, 167.392 344.492, 151.172 344.217 C 135.986 343.960, 134.215 344.112, 131.299 345.923 M 138 369.531 L 138 382.062 150.250 381.781 L 162.500 381.500 162.781 369.250 L 163.062 357 150.531 357 L 138 357 138 369.531 M 196.655 364.829 C 194.410 367.309, 194.570 371.570, 197 374 C 198.947 375.947, 200.333 376, 248.865 376 C 297.798 376, 298.780 375.961, 301.365 373.927 C 304.347 371.582, 304.730 368.488, 302.443 365.223 L 300.887 363 249.598 363 C 201.181 363, 198.217 363.102, 196.655 364.829" stroke="none" fill="#000000" fill-rule="evenodd"/>
</svg>