<svg xmlns="http://www.w3.org/2000/svg" width="512" height="512" viewBox="0 0 512 512" version="1.1">
	<path d="M 70.332 74.959 C 61.793 76.993, 54.333 84.166, 52.088 92.500 C 51.346 95.256, 51.009 135.087, 51.006 220.591 C 51 355.214, 50.797 350.111, 56.450 357.523 C 57.890 359.411, 61.190 362.203, 63.784 363.728 C 68.414 366.450, 68.863 366.509, 88.500 367 C 101.331 367.321, 108.437 367.867, 108.325 368.524 C 108.229 369.088, 102.492 379.324, 95.575 391.271 C 88.659 403.219, 83 414.030, 83 415.297 C 83 420.953, 86.421 421.214, 98.482 416.479 C 103.414 414.543, 107.930 413.143, 108.518 413.369 C 109.105 413.594, 110.159 417.991, 110.860 423.139 C 111.561 428.288, 112.359 433.288, 112.635 434.251 C 113.295 436.561, 116.599 438.262, 118.965 437.511 C 120.065 437.162, 124.520 430.554, 129.621 421.706 C 134.443 413.343, 139.900 403.908, 141.748 400.740 L 145.107 394.980 148.626 397.664 C 151.125 399.570, 153.703 400.477, 157.526 400.794 C 164.112 401.340, 166.600 400.761, 171.266 397.594 L 174.885 395.138 186.985 416.015 C 193.899 427.944, 199.864 437.139, 200.902 437.469 C 203.495 438.292, 206.020 437.078, 206.983 434.545 C 207.439 433.345, 208.382 428.007, 209.079 422.682 C 209.800 417.173, 210.813 413, 211.430 413 C 212.026 413, 216.526 414.575, 221.429 416.500 C 233.404 421.201, 237 420.947, 237 415.399 C 237 414.189, 231.187 403.151, 224.081 390.872 C 216.976 378.592, 211.378 368.198, 211.641 367.773 C 211.903 367.348, 263.279 366.997, 325.809 366.994 C 401.043 366.991, 440.760 366.639, 443.225 365.954 C 448.793 364.408, 455.070 359.105, 457.945 353.517 L 460.500 348.553 460.500 220.527 L 460.500 92.500 457.407 87 C 453.950 80.853, 446.847 75.732, 440.268 74.645 C 434.848 73.749, 74.126 74.056, 70.332 74.959 M 72.169 84.986 C 67.732 86.044, 63.199 90.546, 61.969 95.116 C 61.321 97.521, 61.063 142.443, 61.235 222.664 C 61.495 344.031, 61.539 346.565, 63.478 349.771 C 66.771 355.216, 71.924 357, 84.361 357 L 95.091 357 94.492 353.750 C 94.162 351.962, 93.821 349.488, 93.733 348.250 C 93.582 346.104, 93.179 346, 84.978 346 C 70.877 346, 72.541 362.203, 72.238 221.923 C 72.006 114.321, 72.149 100.422, 73.511 98.343 L 75.046 96 256 96 L 436.954 96 438.489 98.343 C 439.851 100.422, 439.994 114.321, 439.762 221.923 C 439.505 340.624, 439.459 343.191, 437.559 344.581 C 435.912 345.785, 419.745 346, 330.809 346 L 226 346 226 349.566 C 226 351.527, 225.534 354.002, 224.965 355.066 C 223.944 356.972, 225.454 357, 331.149 357 C 435.941 357, 438.461 356.955, 442.456 355.021 C 444.704 353.933, 447.434 351.570, 448.522 349.771 C 450.465 346.558, 450.500 344.266, 450.500 220.323 C 450.500 94.446, 450.495 94.140, 448.438 91.385 C 447.304 89.866, 445.134 87.696, 443.615 86.562 L 440.854 84.500 258.177 84.346 C 157.705 84.261, 74.001 84.549, 72.169 84.986 M 83 124 C 83 133.900, 83.143 142, 83.318 142 C 85.078 142, 95.272 138.355, 98 136.751 C 102.715 133.978, 109.679 127.321, 112.566 122.829 C 114.518 119.792, 119 108.439, 119 106.532 C 119 106.239, 110.900 106, 101 106 L 83 106 83 124 M 128.084 111.516 C 126.151 120.155, 120.393 130.607, 114.109 136.888 C 107.664 143.329, 97.134 149.212, 88.750 151.054 L 83 152.318 83 220.640 L 83 288.962 85.750 289.581 C 94.183 291.480, 97.014 292.447, 102 295.128 C 107.467 298.068, 107.510 298.074, 109.132 296.078 C 110.030 294.973, 111.076 292.366, 111.457 290.285 C 113.514 279.035, 122.106 272.743, 134.748 273.227 C 141.542 273.487, 142.039 273.351, 145.191 270.362 C 149.984 265.817, 154.213 264, 160 264 C 165.787 264, 170.016 265.817, 174.809 270.362 C 177.943 273.334, 178.485 273.486, 185.057 273.235 C 197.986 272.743, 206.363 278.923, 208.456 290.500 C 209.350 295.446, 210.096 296.360, 216.667 300.564 C 225.764 306.383, 228.493 316.335, 223.911 326.985 C 219.875 336.367, 211.790 335.466, 302.632 335.756 L 382.737 336.012 383.908 330.062 C 387.309 312.777, 401.758 296.736, 418.500 291.658 C 421.250 290.824, 424.738 289.876, 426.250 289.552 L 429 288.962 429 220.640 L 429 152.318 423.484 151.084 C 414.611 149.098, 404.163 143.320, 397.865 136.915 C 391.495 130.437, 385.743 119.896, 384.003 111.513 L 382.858 106 256.088 106 L 129.318 106 128.084 111.516 M 393 106.318 C 393 106.494, 393.724 109.081, 394.609 112.068 C 398.949 126.718, 410.767 137.665, 426.250 141.379 L 429 142.038 429 124.019 L 429 106 411 106 C 401.100 106, 393 106.143, 393 106.318 M 246.178 119.527 C 236.721 124.465, 227.411 126.894, 214.772 127.722 C 208.277 128.147, 205.642 128.738, 204.472 130.031 C 203.094 131.553, 202.936 135.913, 203.199 165.135 C 203.491 197.505, 203.569 198.652, 205.805 203.592 C 207.073 206.392, 210.223 210.718, 212.805 213.204 C 217.298 217.531, 253.519 240, 256 240 C 258.481 240, 294.702 217.531, 299.195 213.204 C 301.777 210.718, 304.927 206.392, 306.195 203.592 C 308.431 198.652, 308.509 197.505, 308.801 165.135 C 309.148 126.554, 309.472 128, 300.476 128 C 287.911 128, 270.549 123.276, 261.775 117.470 C 259.723 116.112, 257.246 115.041, 256.271 115.091 C 255.297 115.141, 250.755 117.137, 246.178 119.527 M 248.716 129.660 C 240.865 133.640, 230.303 136.553, 220.070 137.562 L 212.890 138.269 213.195 167.385 C 213.597 205.725, 211.957 202.483, 239.214 218.851 L 255.928 228.889 272.714 218.860 C 291.368 207.715, 293.252 206.251, 296.347 200.500 C 298.387 196.710, 298.516 194.970, 298.805 167.399 L 299.109 138.297 292.263 137.661 C 282.649 136.767, 271.071 133.627, 263.204 129.779 C 259.517 127.976, 256.275 126.437, 256 126.361 C 255.725 126.284, 252.447 127.769, 248.716 129.660 M 263.547 170.991 L 250.428 183.981 243.569 177.069 C 239.796 173.268, 235.904 169.947, 234.920 169.689 C 232.218 168.983, 229 171.733, 229 174.749 C 229 178.387, 246.463 196, 250.070 196 C 253.274 196, 283 166.566, 283 163.393 C 283 161.109, 280.120 158, 278.004 158 C 277.268 158, 270.762 163.846, 263.547 170.991 M 110.571 247.571 C 108.706 249.436, 108.517 253.117, 110.200 254.800 C 111.944 256.544, 400.056 256.544, 401.800 254.800 C 403.567 253.033, 403.260 249.546, 401.171 247.655 C 399.487 246.131, 387.961 246, 255.743 246 C 126.531 246, 111.985 246.157, 110.571 247.571 M 212.205 272.195 C 210.299 274.101, 210.739 278.790, 212.934 279.965 C 214.228 280.657, 245.491 281, 307.279 281 C 398.879 281, 399.706 280.982, 401.527 278.970 C 402.983 277.361, 403.166 276.375, 402.408 274.220 L 401.452 271.500 307.431 271.245 C 235.132 271.049, 213.132 271.268, 212.205 272.195 M 151.707 277.931 C 145.690 282.903, 142.085 284.077, 133.824 283.756 C 125.981 283.452, 123.553 285.022, 121.991 291.409 C 120.115 299.079, 117.007 303.801, 111.375 307.539 C 103.393 312.837, 102.331 316.104, 105.978 324.141 C 107.066 326.538, 107.956 330.300, 107.956 332.500 C 107.956 334.700, 107.066 338.462, 105.978 340.859 C 104.890 343.257, 104 346.273, 104 347.562 C 104 350.160, 105.945 355, 106.989 355 C 107.356 355, 109.665 356.330, 112.120 357.956 C 116.986 361.179, 120.381 366.393, 121.422 372.246 C 121.789 374.306, 123.158 377.231, 124.464 378.746 C 126.671 381.306, 127.320 381.484, 133.669 381.269 C 142.248 380.978, 145.920 382.171, 151.607 387.093 C 157.804 392.456, 161.781 392.451, 168.293 387.069 C 174.278 382.124, 177.801 380.978, 186.139 381.269 C 194.013 381.543, 196.439 379.977, 198.025 373.591 C 200.112 365.190, 202.731 361.148, 208.461 357.482 C 216.580 352.288, 217.695 348.954, 214.022 340.859 C 212.934 338.462, 212.044 334.700, 212.044 332.500 C 212.044 330.300, 212.934 326.538, 214.022 324.141 C 217.695 316.046, 216.580 312.712, 208.461 307.518 C 202.731 303.852, 200.112 299.810, 198.025 291.409 C 196.439 285.023, 194.013 283.457, 186.139 283.731 C 177.801 284.022, 174.278 282.876, 168.293 277.931 C 164.740 274.994, 162.642 274, 160 274 C 157.358 274, 155.260 274.994, 151.707 277.931 M 148.500 293.346 C 132.962 298.492, 122.720 310.098, 119.784 325.888 C 116.560 343.220, 126.218 361.471, 142.759 369.307 C 149.008 372.267, 150.266 372.500, 160 372.500 C 169.675 372.500, 171.015 372.256, 177.062 369.391 C 193.608 361.550, 203.084 343.790, 200.042 326.322 C 197.669 312.692, 189.634 301.899, 177.364 295.858 C 171.549 292.996, 169.548 292.544, 161.602 292.300 C 155.982 292.128, 150.970 292.528, 148.500 293.346 M 230 297 C 227.633 299.367, 227.495 300.927, 229.419 303.559 C 230.800 305.447, 232.941 305.507, 308.567 305.768 C 393.355 306.061, 391 306.210, 391 300.534 C 391 294.829, 393.526 295, 309.277 295 C 233.333 295, 231.965 295.035, 230 297 M 83 317.581 L 83 336 90.031 336 C 98.613 336, 99.233 335.086, 95.977 327.232 C 93.102 320.295, 93.090 313.208, 95.945 308.369 C 97.075 306.453, 98 304.755, 98 304.595 C 98 304.060, 90.546 301.097, 86.750 300.123 L 83 299.161 83 317.581 M 423.892 300.449 C 416.784 302.410, 409.404 306.860, 404.411 312.199 C 399.610 317.331, 394.308 327.477, 393.802 332.500 L 393.500 335.500 411.250 335.773 L 429 336.046 429 317.523 C 429 307.335, 428.887 299.040, 428.750 299.089 C 428.613 299.139, 426.427 299.751, 423.892 300.449 M 152 302.876 C 138.081 307.456, 129.605 318.678, 129.625 332.500 C 129.639 341.975, 132.548 348.472, 139.705 355.014 C 158.680 372.356, 190.103 359.037, 190.301 333.568 C 190.436 316.301, 178.278 303.131, 161.500 302.370 C 157.650 302.196, 153.375 302.423, 152 302.876 M 106.173 393.121 C 102.694 399.204, 99.994 404.321, 100.173 404.493 C 100.353 404.665, 103.341 403.665, 106.814 402.271 C 114.731 399.094, 117.564 399.924, 118.521 405.704 C 118.866 407.792, 119.453 411.205, 119.825 413.288 L 120.500 417.076 127.648 404.788 L 134.796 392.500 130.075 391.881 C 123.795 391.057, 118.420 388.399, 115.912 384.877 C 114.786 383.295, 113.557 382.014, 113.182 382.031 C 112.807 382.049, 109.653 387.039, 106.173 393.121 M 204.553 384.279 C 202.365 387.617, 195.603 391.138, 189.970 391.872 L 185.145 392.500 192.307 404.912 L 199.468 417.324 200.708 409.918 C 201.896 402.822, 203.550 400, 206.521 400 C 207.148 400, 210.324 401.085, 213.580 402.411 C 216.836 403.738, 219.624 404.702, 219.775 404.554 C 220.189 404.147, 207.984 383.108, 206.970 382.481 C 206.485 382.181, 205.397 382.990, 204.553 384.279" stroke="none" fill="#000000" fill-rule="evenodd"/>
</svg>