<svg xmlns="http://www.w3.org/2000/svg" width="512" height="512" viewBox="0 0 512 512" version="1.1">
	<path d="M 197.293 110.508 C 183.078 113.597, 169.885 122.668, 161.344 135.226 C 145.367 158.716, 148.306 189.482, 168.437 209.490 C 183.556 224.517, 204.096 230.218, 224.404 225.025 C 235.312 222.235, 243.312 217.639, 251.506 209.454 C 265.750 195.226, 271.709 175.414, 267.584 156 C 260.813 124.136, 229.082 103.600, 197.293 110.508 M 197.105 121.520 C 181.366 125.935, 168.674 138.448, 163.842 154.313 C 161.127 163.228, 161.607 176.679, 164.948 185.324 C 170.060 198.550, 182.384 209.933, 196.103 214.100 C 205.176 216.856, 218.600 216.425, 227.192 213.101 C 239.160 208.472, 250.382 197.280, 255.124 185.243 C 258.418 176.881, 258.466 160.044, 255.220 151.496 C 250.601 139.333, 239.098 127.675, 227.044 122.944 C 219.742 120.077, 204.783 119.366, 197.105 121.520 M 302.500 177.842 C 300.850 178.850, 298.986 180.311, 298.358 181.088 C 294.758 185.542, 269.758 229.715, 269.324 232.391 C 268.111 239.868, 274.540 246.993, 282.500 246.993 C 286.925 246.993, 292.276 244.222, 293.971 241.054 C 295.170 238.814, 295.830 238.606, 297.793 239.851 C 298.821 240.503, 298.556 242.501, 296.502 249.586 C 284.331 291.558, 307.258 335.953, 348.436 350.146 C 361.095 354.510, 374.936 355.768, 387.257 353.676 C 405.200 350.630, 421.795 342.254, 432.671 330.755 C 438.839 324.232, 439.987 320.706, 439.994 308.250 L 440 299 446.015 299 C 451.419 299, 452.393 298.667, 455.613 295.716 C 462.107 289.764, 461.163 279.509, 453.701 274.960 C 450.700 273.129, 448.474 273.007, 418 273.007 C 387.163 273.007, 385.331 273.111, 382.190 275.026 C 378.848 277.063, 376 282.143, 376 286.067 C 376 289.392, 379.039 294.979, 381.852 296.825 C 383.256 297.746, 387.126 298.725, 390.452 299 C 396.354 299.488, 396.507 299.574, 396.801 302.590 C 397.085 305.498, 396.730 305.851, 390.801 308.566 C 385.305 311.082, 383.350 311.445, 375.500 311.408 C 368.588 311.375, 365.158 310.839, 360.715 309.098 C 352.641 305.933, 343.945 297.665, 339.768 289.180 C 336.759 283.070, 336.500 281.775, 336.500 272.856 C 336.500 267.529, 336.814 262.855, 337.198 262.470 C 337.582 262.085, 340.805 263.397, 344.361 265.385 C 351.542 269.401, 353.700 269.724, 358.113 267.442 C 360.860 266.021, 361.514 266.031, 365.501 267.554 C 369.650 269.138, 370.071 269.128, 373.672 267.362 C 376.692 265.881, 378.273 263.964, 381.395 258 C 386.374 248.486, 386.055 244.408, 380.005 240.202 C 376.471 237.744, 376.167 237.183, 376.648 233.997 C 377.041 231.393, 376.640 229.812, 375.087 227.838 C 373.891 226.317, 361.896 219.117, 347.024 210.994 L 321.051 196.807 321.589 191.153 C 322.237 184.339, 320.153 180.249, 314.717 177.670 C 310.154 175.505, 306.232 175.560, 302.500 177.842 M 303.693 192.750 C 291.193 213.571, 280 233.256, 280 234.419 C 280 236.839, 282.968 237.068, 284.778 234.787 C 288.872 229.626, 291.993 227, 294.033 227 C 295.236 227, 298.934 228.446, 302.251 230.214 C 311.145 234.955, 311.762 237.076, 307.744 249.089 C 304.808 257.864, 304.596 259.445, 304.604 272.500 C 304.612 284.989, 304.901 287.363, 307.281 294.500 C 311.062 305.837, 316.347 314.332, 325.007 322.993 C 333.670 331.655, 342.168 336.941, 353.500 340.716 C 360.584 343.076, 363.046 343.381, 375 343.381 C 386.954 343.381, 389.416 343.076, 396.500 340.716 C 406.919 337.245, 416.056 331.852, 423.269 324.914 L 429.076 319.328 428.788 309.414 L 428.500 299.500 418 299.500 L 407.500 299.500 406.996 305.149 C 406.376 312.106, 404.916 313.823, 396.214 317.826 C 365.649 331.887, 331.022 313.040, 325.809 279.508 C 323.909 267.290, 327.183 253.604, 332.595 251.139 C 336.423 249.394, 337.931 249.718, 345.685 253.945 C 351.614 257.177, 353.068 257.623, 354.004 256.495 C 355.888 254.225, 360.498 253.763, 364.519 255.443 C 369.611 257.571, 369.680 257.547, 372.079 252.845 C 373.987 249.105, 374.039 248.601, 372.594 247.792 C 367.766 245.091, 365.608 242.156, 365.061 237.546 L 364.500 232.812 337.554 218.043 C 307.515 201.578, 306.151 200.413, 309.371 193.958 C 311.578 189.535, 311.469 187, 309.072 187 C 307.793 187, 305.985 188.933, 303.693 192.750 M 148.500 243.482 C 133.552 246.778, 120.528 254.289, 109.980 265.695 C 104.472 271.652, 99.740 279.377, 79.480 315.487 C 66.291 338.995, 54.669 360.315, 53.653 362.864 C 52.264 366.352, 51.916 369.233, 52.247 374.500 C 52.972 386.014, 58.664 394.726, 69 400.142 L 73.500 402.500 134.149 402.780 C 200.362 403.085, 198 403.281, 198 397.485 C 198 391.942, 198.664 392, 135.228 392 C 72.865 392, 74.313 392.106, 68.644 387.129 C 63.997 383.051, 61.505 373.286, 63.504 366.988 C 64.427 364.079, 109.198 284.105, 113.121 278.357 C 120.240 267.927, 135.077 257.917, 148.460 254.515 C 155.428 252.744, 169.635 252.534, 177.201 254.090 C 191.043 256.938, 207.141 268.020, 214.967 280.089 C 216.961 283.163, 224.340 298.290, 231.365 313.704 C 241.266 335.426, 244.966 342.535, 247.819 345.312 C 251.041 348.447, 254.986 350.081, 279.470 358.416 C 294.854 363.654, 308.579 368.781, 309.970 369.810 C 311.362 370.839, 313.143 373.501, 313.930 375.725 C 315.174 379.247, 315.170 380.267, 313.894 383.619 C 313.051 385.833, 311.001 388.431, 309.067 389.734 C 305.733 391.981, 305.410 392, 270.890 392 C 238.338 392, 235.722 391.868, 230.643 389.968 C 223.490 387.291, 217.624 382.943, 213.749 377.446 C 212.017 374.989, 204.576 359.821, 197.213 343.740 C 189.850 327.658, 183.360 313.938, 182.790 313.250 C 181.473 311.660, 176.771 311.629, 175.200 313.200 C 174.540 313.860, 174 315.395, 174 316.611 C 174 319.304, 199.104 374.492, 203.531 381.530 C 209.517 391.049, 219.949 398.449, 231.693 401.508 C 239.046 403.423, 302.943 403.697, 309.142 401.839 C 314.317 400.289, 320.846 394.549, 323.114 389.556 C 325.311 384.718, 325.580 375.319, 323.652 370.718 C 321.692 366.043, 317.281 361.177, 313.124 359.108 C 311.131 358.116, 297.800 353.343, 283.500 348.502 C 268.010 343.259, 256.615 338.852, 255.310 337.600 C 254.105 336.445, 247.256 322.697, 240.088 307.050 C 232.921 291.402, 225.401 276.196, 223.378 273.258 C 213.942 259.558, 197.321 248.188, 180.590 243.986 C 171.380 241.673, 157.678 241.458, 148.500 243.482 M 388.250 283.662 C 386.119 284.522, 386.819 287.918, 389.250 288.511 C 390.488 288.814, 404.319 288.935, 419.987 288.780 C 446.953 288.515, 448.493 288.400, 448.835 286.620 C 449.034 285.586, 448.590 284.355, 447.848 283.885 C 446.439 282.992, 390.430 282.783, 388.250 283.662 M 339.047 361.953 C 336.634 364.366, 336.487 365.915, 338.418 368.559 C 339.777 370.418, 341.758 370.521, 385.168 371 C 429.529 371.489, 430.588 371.547, 434.628 373.708 C 439.825 376.488, 446.279 383.746, 447.715 388.424 L 448.813 392 392.629 392 C 331.533 392, 332 391.958, 332 397.485 C 332 403.196, 329.720 403, 396 403 C 463.814 403, 460 403.411, 460 396.110 C 460 383.052, 451.073 369.864, 438 363.610 L 431.500 360.500 386.297 360.203 C 341.879 359.911, 341.059 359.941, 339.047 361.953" stroke="none" fill="#000000" fill-rule="evenodd"/>
</svg>