<svg xmlns="http://www.w3.org/2000/svg" width="512" height="512" viewBox="0 0 512 512" version="1.1">
	<path d="M 179.700 63.392 C 167.159 70.696, 156.201 77.371, 155.347 78.225 C 153.426 80.145, 154.353 83.660, 157.001 84.500 C 158.046 84.832, 160.252 84.404, 161.905 83.549 L 164.909 81.996 169.094 89.248 C 180.914 109.731, 184.416 115.770, 186.119 118.605 L 187.984 121.711 182.947 124.842 C 177.160 128.440, 174.507 133.325, 175.277 138.964 C 175.543 140.911, 179.796 149.465, 184.742 158 L 193.724 173.500 188.232 179.448 C 182.922 185.198, 182.437 185.472, 173.620 187.700 C 137.890 196.730, 107.384 226.925, 98.050 262.500 C 88.505 298.879, 97.846 336.451, 123.164 363.517 C 128.446 369.163, 138.251 377.362, 142.696 379.850 C 143.839 380.489, 141.152 386.371, 129.571 408.577 C 115.894 434.802, 115.008 436.840, 115.004 442.093 C 114.998 449.774, 118.163 455.576, 124.499 459.500 L 129.343 462.500 268.734 462.767 C 397.846 463.014, 408.388 462.910, 411.686 461.345 C 416.560 459.032, 418.313 454.547, 417.812 445.673 C 417.456 439.381, 417.134 438.509, 414.195 435.883 L 410.968 433 340.984 433 L 271 433 271 413 L 271 393 304.750 392.990 C 338.117 392.981, 338.557 392.954, 343.500 390.623 C 350.029 387.544, 352.163 385.085, 356.421 375.743 C 359.587 368.796, 360.235 368, 362.725 367.996 C 366.794 367.991, 371.912 364.454, 373.560 360.510 C 375.411 356.080, 375.411 345.920, 373.560 341.490 C 372.768 339.594, 370.631 337.136, 368.810 336.026 C 365.614 334.077, 363.878 334.007, 318.263 334.004 L 271.027 334 269.642 330.750 C 267.989 326.868, 264.544 323.529, 260.685 322.067 C 256.181 320.360, 182.831 320.626, 178.671 322.364 C 175.628 323.636, 172.055 327.182, 169.351 331.616 C 168.282 333.369, 167.879 333.188, 163.550 329 C 154.188 319.942, 148.352 307.378, 147.326 294.066 C 146.603 284.693, 149.355 272.646, 154.156 264.171 C 158.950 255.707, 168.504 246.786, 177.191 242.662 C 188.137 237.465, 190.028 237.284, 195.087 240.948 C 203.909 247.339, 218.151 249.629, 229.012 246.404 C 235.419 244.501, 233.902 243.025, 244.429 261.407 C 253.433 277.131, 256.126 280.034, 262.358 280.737 C 265.994 281.147, 267.795 280.727, 271.657 278.568 C 277.079 275.538, 277.115 275.556, 281.163 283.376 L 283.169 287.252 280.085 290.070 C 278.388 291.619, 277 293.330, 277 293.872 C 277 295.591, 280.183 298.118, 281.950 297.803 C 282.886 297.636, 294.551 291.207, 307.872 283.515 C 331.601 269.813, 332.086 269.469, 331.796 266.515 C 331.536 263.862, 331.140 263.516, 328.500 263.632 C 326.850 263.705, 324.600 264.064, 323.500 264.430 C 321.835 264.984, 320.963 264.117, 318.294 259.252 L 315.088 253.407 318.469 251.586 C 326.869 247.063, 330.154 239.065, 326.507 232.014 C 321.616 222.555, 250.508 100.192, 248.860 98.398 C 244.494 93.645, 237.017 93.432, 229.533 97.848 L 226.257 99.781 215.129 80.503 C 209.008 69.900, 204 60.776, 204 60.227 C 204 59.679, 205.152 58.475, 206.560 57.552 C 208.449 56.315, 209.039 55.169, 208.810 53.187 C 208.177 47.700, 204.321 49.051, 179.700 63.392 M 184.240 70.624 C 178.058 74.223, 173 77.608, 173 78.145 C 173 79.355, 192.783 113.966, 194.588 115.913 C 195.703 117.116, 197.578 116.346, 207.199 110.736 C 213.414 107.112, 218.421 103.776, 218.325 103.323 C 218.118 102.349, 197.082 65.825, 196.132 64.790 C 195.773 64.399, 190.422 67.025, 184.240 70.624 M 211.500 118.003 C 197.200 126.246, 184.895 133.874, 184.156 134.954 C 182.550 137.298, 182.590 137.387, 193.638 156.580 L 201.259 169.820 205.370 168.369 C 219.578 163.357, 236.870 167.739, 247.431 179.030 C 262.871 195.536, 262.678 219.466, 246.976 235.500 L 242.080 240.500 250.986 255.930 C 255.884 264.417, 260.619 271.767, 261.507 272.264 C 262.395 272.761, 263.882 272.879, 264.811 272.527 C 270.071 270.534, 317.434 242.267, 318.667 240.385 C 319.860 238.565, 319.911 237.690, 318.933 235.817 C 316.058 230.309, 245.536 108.236, 243.792 105.750 C 242.686 104.172, 240.934 103.003, 239.682 103.008 C 238.482 103.012, 225.800 109.760, 211.500 118.003 M 215.750 178.566 C 215.338 178.988, 215 180.335, 215 181.560 C 215 183.891, 216.708 185, 220.298 185 C 221.472 185, 224.344 185.730, 226.679 186.621 C 231.753 188.559, 234.267 187.902, 233.820 184.754 C 233.616 183.320, 232.171 181.850, 229.848 180.715 C 225.784 178.728, 216.913 177.376, 215.750 178.566 M 197.034 187.119 C 191.432 192.722, 189.557 197.567, 189.527 206.525 C 189.494 216.467, 191.935 223, 195.683 223 C 198.896 223, 199.625 220.534, 197.642 216.375 C 195.653 212.204, 195.502 203.125, 197.348 198.718 C 198.090 196.948, 199.890 194.085, 201.348 192.356 C 204.491 188.629, 204.707 186.449, 202.073 185.039 C 200.497 184.196, 199.579 184.575, 197.034 187.119 M 170.500 197.361 C 137.330 208.124, 111.893 236.563, 104.815 270.798 C 101.937 284.717, 102.636 304.748, 106.444 317.500 C 111.379 334.027, 120.556 349.405, 132.184 360.634 C 139.627 367.822, 147.128 373.272, 148.158 372.242 C 148.634 371.766, 152.514 364.729, 156.780 356.604 L 164.536 341.831 156.909 334.091 C 144.781 321.782, 138.986 307.840, 139.015 291.040 C 139.041 275.810, 143.532 262.953, 152.888 251.327 C 158.621 244.202, 170.098 235.801, 178.071 232.894 C 181.332 231.705, 184 230.593, 184 230.423 C 184 230.253, 183.118 228.619, 182.039 226.791 C 177.596 219.261, 175.748 203.553, 178.505 196.750 C 179.392 194.560, 179.051 194.586, 170.500 197.361 M 295.750 264.761 L 284.159 271.429 287.330 277.203 C 289.073 280.378, 290.793 282.982, 291.151 282.988 C 291.721 282.999, 312.735 271.291, 313.977 270.271 C 314.470 269.866, 308.954 259.110, 307.920 258.458 C 307.601 258.257, 302.125 261.093, 295.750 264.761 M 179.798 331.750 C 176.551 335.509, 123.787 437.680, 123.284 441.183 C 122.650 445.591, 125.560 451.023, 129.522 452.828 C 131.449 453.706, 166.860 454, 270.595 454 L 409.095 454 408.798 447.750 L 408.500 441.500 336.333 441 C 296.641 440.725, 263.791 440.125, 263.333 439.667 C 262.875 439.209, 262.376 415.157, 262.224 386.217 C 261.977 339.247, 261.773 333.407, 260.319 331.800 C 258.804 330.126, 255.986 330, 220 330 C 184.395 330, 181.189 330.140, 179.798 331.750 M 209.340 343.396 C 203.171 345.383, 199.725 348.253, 196.588 354.015 C 189.217 367.558, 198.221 384.524, 213.448 385.787 C 222.872 386.569, 230.860 382.116, 235.163 373.681 C 238.133 367.859, 237.472 357.822, 233.748 352.195 C 228.639 344.476, 217.952 340.623, 209.340 343.396 M 309.200 347.200 C 307.619 348.781, 307.685 349.543, 309.571 351.429 C 310.902 352.759, 314.389 352.998, 332.321 352.986 C 343.970 352.979, 354.481 352.709, 355.681 352.388 C 358.351 351.672, 359.431 349.224, 357.895 347.373 C 356.348 345.509, 311.052 345.348, 309.200 347.200 M 208.420 352.886 C 205.180 354.862, 202 360.333, 202 363.933 C 202 370.085, 207.362 376.414, 213.558 377.577 C 220.648 378.907, 229.004 371.614, 228.996 364.102 C 228.986 353.977, 217.182 347.543, 208.420 352.886 M 271 376.500 L 271 385 303.288 385 C 334.783 385, 335.686 384.945, 340.038 382.750 C 343.332 381.089, 345.214 379.191, 347.227 375.500 C 348.726 372.750, 349.964 369.938, 349.977 369.250 C 349.995 368.271, 341.446 368, 310.500 368 L 271 368 271 376.500" stroke="none" fill="#000000" fill-rule="evenodd"/>
</svg>