<svg xmlns="http://www.w3.org/2000/svg" width="512" height="512" viewBox="0 0 512 512" version="1.1">
	<path d="M 120 51.966 C 118.838 52.706, 118.387 55.866, 118 66.005 L 117.500 79.088 104.402 79.294 C 95.022 79.441, 90.835 79.890, 89.652 80.872 C 88.130 82.137, 88 93.497, 88 224.967 C 88 361.965, 88.073 367.756, 89.829 369.345 C 91.503 370.860, 99.487 371, 184.079 371.004 L 276.500 371.009 281 374.006 C 287.400 378.268, 298.235 382.572, 307.208 384.416 C 319.526 386.947, 332.555 386.280, 345.664 382.445 C 347.281 381.972, 348.140 382.393, 349.056 384.105 C 350.124 386.101, 350.005 386.585, 348.142 387.822 C 346.906 388.643, 346 390.298, 346 391.737 C 346 395.214, 381.087 451.102, 385.611 454.831 C 392.379 460.409, 401.374 461.458, 409.500 457.617 C 418.588 453.320, 423 446.419, 423 436.499 C 423 432.535, 422.293 429.576, 420.543 426.217 C 415.921 417.346, 385.503 369.692, 383.775 368.616 C 382.537 367.845, 381.195 367.865, 379.016 368.688 C 376.448 369.657, 375.844 369.576, 375.086 368.161 C 374.398 366.875, 375.549 364.894, 380.062 359.595 C 387.187 351.229, 393.127 340.102, 396.160 329.443 C 397.941 323.187, 398.421 318.951, 398.421 309.500 C 398.421 300.049, 397.941 295.813, 396.160 289.557 C 390.006 267.930, 375.701 250.747, 356 241.316 C 350.775 238.815, 345.825 236.434, 345 236.026 C 343.699 235.381, 343.434 227.099, 343 173.643 L 342.500 112.003 312.248 81.752 L 281.996 51.500 201.748 51.255 C 152.015 51.104, 120.930 51.374, 120 51.966 M 128 70 L 128 79 187.935 79 C 227.227 79, 248.839 79.361, 250.685 80.047 C 254.427 81.439, 310.808 137.597, 312.600 141.718 C 313.730 144.315, 314 153.431, 314 188.968 L 314 233 321.918 233 C 326.273 233, 330.548 233.273, 331.418 233.607 C 332.849 234.156, 333 228.660, 333 175.850 L 333 117.487 304.744 89.243 L 276.487 61 202.244 61 L 128 61 128 70 M 98 225.500 L 98 361 181.551 361 L 265.101 361 260.670 354.750 C 254.966 346.704, 251.765 340.268, 248.847 330.975 C 246.817 324.509, 246.509 321.543, 246.566 309 C 246.622 296.902, 246.992 293.423, 248.803 288 C 250.850 281.871, 250.975 279.662, 250.987 249.306 L 251 217.112 253.411 214.306 C 255.759 211.574, 256.130 211.491, 267.492 211.162 C 286.189 210.620, 288 212.318, 288 230.398 L 288 240.860 293.980 238.430 C 297.269 237.093, 300.644 236, 301.480 236 C 302.816 236, 303 230.805, 303 193 L 303 150 285.136 150 C 275.312 150, 264.849 149.547, 261.886 148.993 C 255.047 147.714, 249.194 143.647, 246 137.956 C 243.582 133.646, 243.489 132.788, 243.165 111.750 L 242.831 90 170.415 90 L 98 90 98 225.500 M 254 114.600 L 254 132.200 257.400 135.600 L 260.800 139 278.641 139 L 296.482 139 275.500 118 C 263.960 106.450, 254.401 97, 254.259 97 C 254.117 97, 254 104.920, 254 114.600 M 169.316 143.943 C 162.971 146.824, 159.481 152.726, 159.570 160.427 L 159.639 166.500 150.746 173.364 L 141.853 180.228 136.320 178.487 C 131.612 177.006, 130.170 176.932, 126.644 177.986 C 120.732 179.755, 117.476 182.384, 115.086 187.323 C 112.444 192.780, 112.444 197.220, 115.086 202.677 C 120.049 212.929, 133.245 215.714, 141.990 208.355 C 146.424 204.624, 148 200.909, 148 194.191 L 148 188.283 157.154 181.257 C 166.286 174.247, 166.315 174.234, 169.622 175.615 C 173.844 177.379, 180.139 177.386, 184.340 175.631 C 187.596 174.271, 187.670 174.305, 196.900 181.351 C 206.055 188.340, 206.177 188.490, 205.615 192.008 C 204.285 200.324, 210.463 209.701, 218.740 211.930 C 229.308 214.776, 240.525 206.222, 240.940 195 C 241.019 192.866, 242.123 192.039, 248.479 189.353 C 254.918 186.632, 256.090 186.404, 257.140 187.669 C 260.780 192.054, 271.029 193.588, 276.790 190.609 C 281.308 188.272, 285.721 182.611, 286.467 178.193 C 289.089 162.677, 271.450 151.375, 259.165 160.700 C 254.678 164.106, 252.008 168.735, 252.004 173.116 C 252 176.628, 251.798 176.823, 244.991 179.866 C 236.798 183.530, 235.879 183.629, 233.593 181.103 C 232.649 180.060, 229.817 178.688, 227.299 178.054 C 223.513 177.100, 221.817 177.186, 217.479 178.550 L 212.236 180.200 203.039 173.350 C 193.884 166.531, 193.844 166.483, 194.331 162.715 C 195.351 154.808, 191.436 147.358, 184.494 143.997 C 179.352 141.508, 174.717 141.492, 169.316 143.943 M 172.399 154.333 C 167.095 158.896, 170.109 167, 177.111 167 C 183.696 167, 186.596 158.188, 181.365 154.073 C 177.957 151.392, 175.744 151.456, 172.399 154.333 M 266.315 168.016 C 261.857 169.794, 260.551 176.551, 264 180 C 266.650 182.650, 272.108 182.643, 274.512 179.987 C 279.555 174.414, 273.275 165.242, 266.315 168.016 M 125.073 190.635 C 122.408 194.022, 122.454 196.281, 125.250 199.393 C 129.997 204.676, 138 201.919, 138 195 C 138 188.313, 129.229 185.351, 125.073 190.635 M 217.655 189.829 C 215.382 192.341, 215.518 198.254, 217.899 200.409 C 220.426 202.695, 225.525 202.740, 228.003 200.497 C 230.609 198.139, 230.705 191.948, 228.171 189.655 C 225.700 187.418, 219.747 187.517, 217.655 189.829 M 163.500 197.208 C 159.001 199.788, 159.065 198.979, 159.032 253.161 L 159 304.822 162.169 307.489 C 165.286 310.112, 165.544 310.150, 177.758 309.828 C 189.950 309.506, 190.222 309.449, 192.589 306.694 L 195 303.888 195 252.533 L 195 201.178 191.923 198.589 C 188.992 196.122, 188.294 196.001, 177.173 196.030 C 170.280 196.048, 164.681 196.530, 163.500 197.208 M 169 253 L 169 300 177 300 L 185 300 185 253 L 185 206 177 206 L 169 206 169 253 M 261 241.834 L 261 262.668 269 254.880 L 277 247.093 277 234.046 L 277 221 269 221 L 261 221 261 241.834 M 118.500 231.945 C 117.400 232.396, 115.600 233.764, 114.500 234.985 C 112.606 237.090, 112.484 238.852, 112.188 268.353 C 111.982 288.974, 112.248 300.765, 112.977 303.244 C 114.638 308.898, 117.664 310, 131.527 310 C 143.044 310, 143.181 309.972, 146.077 307.077 L 149 304.154 149 271.011 C 149 249.182, 148.631 237.179, 147.920 235.850 C 146.076 232.404, 140.881 230.995, 130.282 231.063 C 124.902 231.098, 119.600 231.495, 118.500 231.945 M 211.270 231.653 C 210.043 231.917, 208.131 233.289, 207.020 234.702 C 205.085 237.161, 205 238.674, 205 270.546 L 205 303.822 208.077 306.411 C 210.996 308.868, 211.741 309, 222.642 309 C 234.122 309, 237.267 308.279, 239.718 305.087 C 240.619 303.914, 240.945 294.740, 240.968 269.924 L 241 236.349 238.424 233.929 C 236.045 231.694, 234.998 231.497, 224.674 231.341 C 218.529 231.248, 212.496 231.388, 211.270 231.653 M 123 271 L 123 300 131 300 L 139 300 139 271 L 139 242 131 242 L 123 242 123 271 M 215 270.500 L 215 299 223 299 L 231 299 231 270.500 L 231 242 223 242 L 215 242 215 270.500 M 314.500 243.558 C 313.400 243.812, 310.025 244.504, 307 245.095 C 303.975 245.687, 297.900 247.900, 293.500 250.014 C 280.006 256.496, 269.720 266.751, 262.920 280.500 C 243.604 319.560, 267.100 366.486, 310.054 374.639 C 344.152 381.111, 377.453 359.934, 386.564 325.983 C 388.881 317.353, 388.881 301.657, 386.566 293 C 379.086 265.034, 354.226 244.826, 325.692 243.517 C 320.637 243.286, 315.600 243.304, 314.500 243.558 M 308 253.530 C 297.549 256.387, 289.943 260.882, 281.966 268.914 C 269.838 281.127, 264.902 292.846, 264.873 309.500 C 264.848 323.800, 269.142 335.864, 278.043 346.500 C 289.371 360.035, 304.592 367, 322.843 367 C 344.244 367, 363.211 355.448, 373.286 336.276 C 389.745 304.954, 374.461 266.607, 340.839 254.868 C 332.624 252, 316.065 251.325, 308 253.530 M 310.105 263.583 C 296.767 267.169, 285.388 276.791, 279.228 289.692 C 275.565 297.364, 275.500 297.708, 275.500 309.500 C 275.500 321.280, 275.568 321.643, 279.208 329.266 C 287.982 347.639, 304.950 357.850, 324.902 356.761 C 335.511 356.182, 342.949 353.471, 351.272 347.150 C 373.913 329.955, 376.143 296.303, 355.976 276.136 C 343.960 264.120, 326.190 259.257, 310.105 263.583 M 361.250 375.180 C 358.183 377.071, 357.080 379.341, 358.750 380.323 C 359.949 381.027, 367.169 376.006, 366.752 374.757 C 366.145 372.934, 364.714 373.044, 361.250 375.180 M 368.765 386.787 C 362.861 390.479, 358.023 393.751, 358.015 394.059 C 358.007 394.366, 358.614 395.457, 359.364 396.483 C 360.655 398.249, 361.277 398.006, 371.041 391.924 C 376.713 388.391, 381.744 385.236, 382.220 384.914 C 382.697 384.592, 382.280 383.371, 381.293 382.201 L 379.500 380.074 368.765 386.787 M 376.649 400.399 C 371.232 403.854, 366.792 407.010, 366.784 407.412 C 366.749 409.122, 390.685 446.403, 392.641 447.684 C 401.245 453.322, 412.986 446.921, 412.996 436.588 C 412.999 433.314, 411.023 429.524, 400.873 413.338 C 394.203 402.702, 388.241 394.026, 387.623 394.058 C 387.005 394.090, 382.067 396.944, 376.649 400.399" stroke="none" fill="#000000" fill-rule="evenodd"/>
</svg>