<svg xmlns="http://www.w3.org/2000/svg" width="512" height="512" viewBox="0 0 512 512" version="1.1">
	<path d="M 236.500 52.122 C 205.124 55.089, 169.185 67.683, 144 84.535 C 89.767 120.824, 57.017 176.467, 51.816 241.157 C 49.092 275.035, 56.134 312.659, 71.047 343.894 C 88.222 379.866, 116.816 411.284, 151.070 431.819 C 186.632 453.137, 230.126 463.432, 270.764 460.150 C 415.826 448.434, 503.143 296.953, 440.031 166.500 C 403.012 89.981, 321.359 44.095, 236.500 52.122 M 249.432 71 C 243.827 74.592, 236.839 86.289, 231.625 100.810 C 230.181 104.830, 229 108.205, 229 108.310 C 229 108.414, 240.925 108.500, 255.500 108.500 C 270.075 108.500, 282 108.173, 282 107.773 C 282 105.952, 276.675 93.189, 273.004 86.210 C 264.849 70.706, 257.395 65.897, 249.432 71 M 213.830 79.399 C 196.518 88.125, 180.419 101.202, 169.606 115.319 C 166.523 119.344, 164 122.891, 164 123.200 C 164 123.509, 168.619 122.236, 174.264 120.371 C 179.909 118.507, 190.086 115.740, 196.880 114.224 L 209.231 111.467 213.018 100.705 C 215.101 94.786, 218.402 86.581, 220.353 82.472 C 222.305 78.362, 223.586 75.007, 223.201 75.015 C 222.815 75.023, 218.599 76.996, 213.830 79.399 M 287 75.337 C 287 75.596, 288.840 79.642, 291.089 84.329 C 293.338 89.016, 296.616 97.007, 298.375 102.088 L 301.573 111.326 314.036 114.061 C 320.891 115.566, 331.356 118.376, 337.290 120.307 L 348.080 123.817 346.272 120.961 C 340.131 111.262, 328.140 99.185, 315.342 89.809 C 306.993 83.693, 287 73.483, 287 75.337 M 160.080 95.556 C 131.900 112.690, 110.728 134.428, 92.931 164.500 L 90.563 168.500 95.850 164 C 105.941 155.412, 117.136 147.272, 125.795 142.226 C 130.583 139.437, 135.097 136.557, 135.827 135.827 C 136.557 135.097, 139.437 130.583, 142.226 125.795 C 147.275 117.131, 155.566 105.729, 163.843 96.069 C 166.232 93.281, 168.032 91.010, 167.843 91.022 C 167.654 91.034, 164.161 93.074, 160.080 95.556 M 347.910 96.541 C 355.573 104.982, 362.911 114.944, 369.840 126.314 C 375.694 135.922, 376.010 136.241, 384.859 141.470 C 395.389 147.692, 407.008 156.261, 415.207 163.852 C 418.393 166.802, 421 168.786, 421 168.260 C 421 166.845, 410.938 151.076, 405.403 143.816 C 389.696 123.215, 369.870 105.832, 348.500 93.925 L 342.500 90.582 347.910 96.541 M 237.037 126.154 C 230.732 126.634, 225.208 127.392, 224.761 127.839 C 222.891 129.709, 215.752 169.782, 214.370 186.167 L 213.751 193.500 256.449 193.531 L 299.146 193.563 298.491 187.531 C 296.628 170.380, 289.727 130.794, 288.155 128.251 C 287.760 127.612, 281.060 126.701, 272.158 126.076 C 255.270 124.890, 253.606 124.893, 237.037 126.154 M 189.500 133.963 C 178.043 136.964, 163.479 141.995, 153.926 146.251 C 148.460 148.686, 148.282 148.897, 144.771 157.117 C 138.776 171.153, 129.648 202.981, 131.178 204.512 C 131.368 204.701, 134.667 204.190, 138.511 203.375 C 149.953 200.952, 175.570 197.104, 185.017 196.391 C 189.861 196.025, 194.218 195.450, 194.698 195.113 C 195.178 194.776, 196.349 187.403, 197.301 178.729 C 198.768 165.370, 202.678 141.189, 204.656 133.250 C 205.409 130.228, 203.397 130.323, 189.500 133.963 M 307.367 132.750 C 309.555 140.385, 314.501 172.134, 315.587 185.515 C 316.103 191.876, 316.696 194.294, 317.891 194.912 C 318.776 195.370, 323.325 196.066, 328 196.459 C 337.469 197.256, 362.735 201.097, 373.489 203.375 C 377.333 204.190, 380.667 204.666, 380.899 204.434 C 383.019 202.315, 366.462 151.288, 362.621 148.100 C 359.911 145.852, 337.165 137.728, 324.464 134.473 C 308.807 130.460, 306.648 130.242, 307.367 132.750 M 116.860 168.634 C 107.710 175.300, 94.904 188.839, 88.035 199.109 C 82.143 207.917, 74.453 222.786, 75.334 223.667 C 75.586 223.920, 79.356 222.335, 83.710 220.146 C 88.065 217.956, 95.874 214.708, 101.064 212.928 C 106.254 211.148, 110.805 209.423, 111.177 209.096 C 111.549 208.768, 113.035 203.211, 114.478 196.746 C 115.921 190.282, 118.601 180.270, 120.433 174.496 C 122.265 168.723, 123.642 164, 123.492 164 C 123.342 164, 120.358 166.085, 116.860 168.634 M 391.515 174.250 C 393.334 179.887, 396.019 189.900, 397.484 196.500 C 398.948 203.100, 400.451 208.782, 400.823 209.126 C 401.195 209.471, 404.650 210.765, 408.500 212.002 C 412.350 213.239, 420.554 216.635, 426.731 219.547 L 437.961 224.842 436.430 221.171 C 431.239 208.727, 422.085 194.698, 411.977 183.698 C 406.635 177.884, 390.236 164, 388.711 164 C 388.435 164, 389.697 168.613, 391.515 174.250 M 226.331 210.931 C 219.088 211.244, 212.815 211.848, 212.391 212.273 C 210.148 214.523, 210.102 297.435, 212.342 299.675 C 214.983 302.316, 298.362 301.651, 300.015 298.975 C 302.765 294.527, 301.997 213.852, 299.188 212.116 C 296.191 210.264, 256.671 209.622, 226.331 210.931 M 176.689 215.020 C 158.143 217.477, 130.512 222.905, 128.293 224.527 C 126.642 225.734, 126.500 228.083, 126.500 254.169 C 126.500 269.751, 126.837 283.700, 127.248 285.168 C 127.928 287.589, 128.850 288.028, 137.248 289.924 C 149.023 292.582, 173.406 296.648, 182.500 297.470 C 186.350 297.818, 190.400 298.284, 191.500 298.506 C 193.475 298.905, 193.501 298.363, 193.557 255.955 C 193.609 217.672, 193.445 213.010, 192.057 213.095 C 191.201 213.148, 184.285 214.014, 176.689 215.020 M 319.435 255.973 C 319.371 298.880, 319.374 298.944, 321.435 298.519 C 322.571 298.285, 328.225 297.584, 334 296.962 C 346.325 295.634, 368.554 291.793, 378.500 289.274 L 385.500 287.500 386.298 275.500 C 387.496 257.495, 386.332 225.809, 384.419 224.358 C 381.814 222.382, 349.764 216.628, 324.500 213.600 L 319.500 213 319.435 255.973 M 101 232.080 C 79.797 240.221, 69 248.443, 69 256.447 C 69 259.656, 74.463 265.805, 81.094 270.060 C 86.037 273.232, 101.722 280.390, 106.183 281.510 L 108.500 282.091 108.500 255.546 C 108.500 240.945, 108.500 229.045, 108.500 229.100 C 108.500 229.155, 105.125 230.496, 101 232.080 M 403.467 255.608 C 403.448 270.798, 403.820 282, 404.343 282 C 406.471 282, 424.039 274.431, 430.180 270.869 C 449.040 259.927, 447.145 248.867, 424.548 238.011 C 419.022 235.356, 412.025 232.291, 409 231.200 L 403.500 229.217 403.467 255.608 M 75.547 289.196 C 76.819 293.293, 83.131 305.263, 87.553 311.968 C 92.801 319.924, 101.768 330.309, 108.500 336.228 C 114.258 341.291, 123.201 348.142, 123.552 347.760 C 123.684 347.617, 122.452 343.450, 120.816 338.500 C 119.179 333.550, 116.413 323.296, 114.668 315.713 L 111.496 301.926 101.330 298.515 C 95.738 296.639, 87.488 293.257, 82.997 290.999 C 75.283 287.120, 74.871 287.020, 75.547 289.196 M 429 291.113 C 424.875 293.198, 416.722 296.518, 410.883 298.490 L 400.265 302.077 398.035 313.289 C 396.809 319.455, 394.274 329.557, 392.403 335.739 C 390.531 341.920, 389 347.236, 389 347.553 C 389 347.869, 392.635 345.316, 397.078 341.879 C 406.071 334.922, 416.044 324.586, 422.532 315.500 C 429.106 306.293, 439.271 286.738, 437.263 287.161 C 436.844 287.249, 433.125 289.028, 429 291.113 M 131.009 308.142 C 131.024 310.357, 135.897 328.838, 138.610 336.966 C 141.844 346.657, 147.953 361.184, 149.387 362.595 C 150.975 364.157, 166.389 370.534, 176.717 373.901 C 186.976 377.246, 203.883 381.450, 204.520 380.814 C 204.762 380.572, 203.834 374.619, 202.459 367.586 C 200.272 356.404, 196.604 330.265, 195.781 320 L 195.500 316.500 188 315.790 C 173.383 314.406, 143.302 309.756, 133.250 307.327 C 131.752 306.965, 131.003 307.237, 131.009 308.142 M 375.500 308.139 C 367.704 309.967, 342.345 313.934, 331.500 315.022 C 325.450 315.628, 319.593 316.304, 318.484 316.523 C 316.652 316.884, 316.265 318.591, 314.245 335.210 C 313.023 345.270, 310.895 359.350, 309.517 366.500 C 308.139 373.650, 307.008 379.877, 307.005 380.338 C 306.991 382.587, 331.398 375.922, 349.314 368.786 C 361.889 363.777, 362.171 363.596, 364.441 359.091 C 371.136 345.801, 383.044 306.753, 380.295 307.100 C 379.858 307.156, 377.700 307.623, 375.500 308.139 M 278.500 319.179 C 272.450 319.668, 255.241 319.792, 240.259 319.453 L 213.018 318.838 213.487 321.669 C 213.744 323.226, 214.441 328.775, 215.034 334 C 216.375 345.813, 219.384 363.615, 222.073 375.649 C 223.780 383.285, 224.480 384.903, 226.309 385.434 C 227.514 385.783, 236.150 386.342, 245.500 386.674 C 266.014 387.404, 285.484 386.373, 287.401 384.456 C 289.105 382.752, 294.401 355.321, 297.005 334.712 C 298.102 326.028, 299 318.716, 299 318.462 C 299 317.847, 291.902 318.095, 278.500 319.179 M 93.522 348.250 C 102.671 364.579, 118.617 383.970, 133.237 396.546 C 149.993 410.959, 177.161 428.031, 164.892 416.437 C 159.473 411.316, 148.834 397.085, 142.331 386.256 C 136.113 375.903, 135.952 375.737, 127.191 370.560 C 116.684 364.351, 105.646 356.300, 97.860 349.167 C 94.758 346.325, 91.977 344, 91.680 344 C 91.384 344, 92.212 345.913, 93.522 348.250 M 413.428 350.006 C 404.264 357.950, 392.785 366.177, 383.412 371.519 C 376.267 375.590, 375.519 376.351, 371.281 383.855 C 367.002 391.431, 355.460 407.309, 347.284 416.866 L 343.549 421.233 351.524 416.532 C 374.737 402.852, 396.675 381.967, 411.432 359.500 C 417.849 349.731, 421.297 344, 420.760 344 C 420.538 344, 417.238 346.703, 413.428 350.006 M 340.500 390.596 C 334.561 392.672, 323.430 395.554, 305.648 399.619 C 301.839 400.490, 301.759 400.608, 298.574 410 C 296.802 415.225, 293.469 423.508, 291.167 428.408 C 288.865 433.307, 287.100 437.433, 287.244 437.577 C 287.387 437.721, 290.857 436.286, 294.954 434.388 C 312.472 426.274, 333.549 408.936, 343.814 394.195 C 346.186 390.788, 347.986 388.033, 347.814 388.074 C 347.641 388.115, 344.350 389.250, 340.500 390.596 M 165 389.753 C 165 390.241, 168.068 394.434, 171.818 399.070 C 179.068 408.033, 190.368 418.378, 199.776 424.666 C 205.242 428.318, 224.088 438.255, 224.581 437.744 C 224.710 437.610, 222.876 433.474, 220.504 428.554 C 218.132 423.633, 214.728 415.308, 212.939 410.054 C 211.150 404.799, 209.637 400.417, 209.576 400.316 C 209.516 400.215, 204.959 399.214, 199.450 398.092 C 191.040 396.378, 176.414 392.514, 167.250 389.584 C 166.012 389.189, 165 389.265, 165 389.753 M 230 404.227 C 230 407.973, 239.646 428.310, 244.729 435.280 C 256.069 450.832, 267.592 442.721, 279.931 410.500 L 282.611 403.500 256.306 403.500 C 241.837 403.500, 230 403.827, 230 404.227" stroke="none" fill="#000000" fill-rule="evenodd"/>
</svg>