<svg xmlns="http://www.w3.org/2000/svg" width="512" height="512" viewBox="0 0 512 512" version="1.1">
	<path d="M 339 60.882 C 326.488 63.638, 315.509 68.242, 304.907 75.179 C 296.955 80.383, 288.563 88.232, 250.662 125.917 C 226.001 150.438, 203.090 174.100, 199.748 178.500 C 192.675 187.811, 185.885 201.491, 182.798 212.646 C 180.960 219.288, 180.625 223.124, 180.625 237.500 C 180.625 257.721, 182.145 264.765, 189.906 280.500 C 195.689 292.225, 202.298 301.286, 210.828 309.181 C 218.034 315.851, 230.539 324.277, 236.758 326.652 L 241.145 328.327 254.641 314.914 C 262.064 307.536, 268.993 300.324, 270.040 298.887 L 271.942 296.273 265.221 294.638 C 235.480 287.401, 216.060 259.598, 220.130 230.083 C 221.459 220.446, 224.245 213.039, 229.565 205 C 232.412 200.698, 249.191 183.244, 279.183 153.386 C 321.863 110.896, 324.936 108.059, 332 104.622 C 366.131 88.013, 404.908 105.123, 415.581 141.500 C 419.776 155.798, 416.615 175.592, 408.075 188.500 C 405.892 191.800, 393.373 205.205, 380.255 218.290 L 356.405 242.080 358.227 250.790 C 360.229 260.359, 360.968 279.930, 359.689 289.500 L 358.886 295.500 397.292 257 C 441.616 212.567, 445.734 207.287, 452.295 186.476 C 463.642 150.485, 453.536 111.615, 426.103 85.736 C 417.326 77.456, 412.249 73.996, 400.774 68.474 C 387.288 61.984, 378.248 59.898, 361.500 59.414 C 350.375 59.092, 345.754 59.394, 339 60.882 M 263.440 199.061 C 254.725 207.788, 247.799 215.101, 248.048 215.312 C 248.296 215.523, 251.200 216.212, 254.500 216.844 C 274.380 220.649, 293.361 238.829, 298.631 259.113 C 300.776 267.372, 300.738 280.692, 298.545 289 C 294.521 304.245, 293.637 305.308, 243.711 354.927 C 218.491 379.992, 195.976 401.792, 193.678 403.371 C 183.891 410.096, 173.513 413.120, 160.329 413.088 C 150.309 413.064, 144.642 411.768, 135.284 407.358 C 122.712 401.434, 110.984 388.591, 106.014 375.307 C 99.516 357.940, 101.844 337.491, 112.045 322.328 C 113.831 319.673, 126.084 306.631, 139.273 293.346 L 163.253 269.193 161.484 260.346 C 159.569 250.770, 159.029 233.691, 160.287 222.500 L 161.075 215.500 126.964 249.500 C 108.203 268.200, 89.948 287.099, 86.398 291.497 C 78.882 300.810, 72.200 313.777, 68.360 326.500 C 65.869 334.755, 65.643 336.907, 65.629 352.500 C 65.611 372.312, 66.998 378.932, 74.478 394.721 C 101.347 451.443, 173.634 468.612, 223.371 430.084 C 226.192 427.898, 249.021 405.498, 274.101 380.305 C 323.577 330.608, 326.206 327.461, 333.038 309.746 C 338.099 296.621, 339.335 289.797, 339.421 274.500 C 339.536 254.185, 335.693 239.638, 325.796 222.925 C 317.350 208.661, 297.973 191.204, 283.881 185.163 L 279.284 183.193 263.440 199.061" stroke="none" fill="#000000" fill-rule="evenodd"/>
</svg>