<svg xmlns="http://www.w3.org/2000/svg" width="512" height="512" viewBox="0 0 512 512" version="1.1">
	<path d="M 246 84.250 C 243.525 85.572, 240.150 88.568, 238.500 90.909 C 235.505 95.157, 235.499 95.194, 235 112.544 L 234.500 129.925 231 132.467 C 229.075 133.865, 225.914 136.843, 223.977 139.084 L 220.453 143.159 212.738 140.095 C 208.495 138.409, 200.528 134.774, 195.034 132.017 C 189.540 129.260, 181.097 125.797, 176.272 124.321 C 167.708 121.701, 166.753 121.627, 136.015 121.231 C 101.472 120.785, 99.299 121.042, 93.326 126.287 C 79.719 138.234, 86.480 160.411, 104.500 162.939 C 108.282 163.469, 108.531 163.718, 109.061 167.500 C 109.370 169.700, 110.382 172.940, 111.311 174.700 L 113 177.901 88.750 221.443 C 64.581 264.841, 64.489 264.986, 61.266 264.993 C 59.109 264.998, 56.943 265.974, 54.766 267.923 C 51.538 270.811, 51.500 270.948, 51.539 279.673 C 51.571 287.036, 52.013 289.441, 54.199 294.175 C 57.863 302.106, 63.791 308.168, 71.253 311.615 L 77.500 314.500 131 314.500 L 184.500 314.500 190.120 311.865 C 197.300 308.498, 202.915 303.409, 206.288 297.212 C 209.460 291.384, 211.612 280.061, 210.586 274.600 C 209.592 269.311, 205.188 265, 200.780 265 L 197.406 265 173.232 221.546 L 149.057 178.092 151.006 173.796 C 152.079 171.433, 152.966 168.262, 152.978 166.750 C 152.998 164.208, 153.305 164, 157.032 164 C 162.151 164, 171.142 167.018, 179.211 171.446 C 186.794 175.607, 203.073 182.073, 212 184.471 C 217.886 186.051, 218.830 186.683, 222 191.157 C 223.925 193.875, 227.641 197.692, 230.257 199.640 L 235.014 203.181 234.757 268.340 L 234.500 333.500 224.500 334 C 216.304 334.410, 213.820 334.923, 210.729 336.845 C 202.104 342.207, 199 349.923, 199 366.001 L 199 376.683 195.250 377.813 C 189.976 379.403, 184.616 384.158, 182.124 389.460 C 180.409 393.107, 180.002 395.860, 180.009 403.739 C 180.018 412.668, 180.265 413.930, 182.914 418.548 C 186.287 424.429, 191.655 428.476, 198 429.924 C 204.075 431.311, 307.925 431.311, 314 429.924 C 320.345 428.476, 325.713 424.429, 329.086 418.548 C 331.735 413.930, 331.982 412.668, 331.991 403.739 C 331.998 395.860, 331.591 393.107, 329.876 389.460 C 327.384 384.158, 322.024 379.403, 316.750 377.813 L 313 376.683 313 366.001 C 313 349.923, 309.896 342.207, 301.271 336.845 C 298.180 334.923, 295.696 334.410, 287.500 334 L 277.500 333.500 277.243 268.340 L 276.986 203.181 281.743 199.640 C 284.359 197.692, 288.075 193.875, 290 191.157 C 293.170 186.683, 294.114 186.051, 300 184.471 C 309.229 181.992, 325.286 175.561, 333.542 171.036 C 340.786 167.066, 348.873 164.336, 354.971 163.803 C 358.331 163.510, 358.465 163.633, 359.156 167.674 C 359.548 169.969, 360.577 173.215, 361.442 174.887 L 363.013 177.927 338.792 221.463 C 314.700 264.765, 314.552 265, 311.362 265 C 303.307 265, 299.593 273.239, 301.929 285.920 C 304.173 298.095, 310.748 306.645, 321.880 311.865 L 327.500 314.500 381 314.500 L 434.500 314.500 440.747 311.615 C 448.209 308.168, 454.137 302.106, 457.801 294.175 C 459.987 289.441, 460.429 287.036, 460.461 279.673 C 460.500 270.948, 460.462 270.811, 457.234 267.923 C 455.057 265.974, 452.891 264.998, 450.734 264.993 C 447.511 264.986, 447.418 264.839, 423.245 221.454 L 398.989 177.921 400.683 174.711 C 401.615 172.945, 402.630 169.700, 402.939 167.500 C 403.469 163.718, 403.718 163.469, 407.500 162.939 C 425.520 160.411, 432.281 138.234, 418.674 126.287 C 412.701 121.042, 410.528 120.785, 375.985 121.231 C 345.247 121.627, 344.292 121.701, 335.728 124.321 C 330.903 125.797, 322.460 129.260, 316.966 132.017 C 311.472 134.774, 303.541 138.395, 299.343 140.063 L 291.709 143.095 287.104 138.186 C 284.572 135.486, 281.262 132.488, 279.750 131.524 L 277 129.770 277 113.542 C 277 98.484, 276.832 96.997, 274.673 92.907 C 271.099 86.138, 265.390 82.639, 257.207 82.203 C 251.607 81.905, 249.757 82.243, 246 84.250 M 249.766 95.915 L 246.500 98.831 246.175 111.669 L 245.851 124.508 256.001 124.565 L 266.151 124.623 265.826 111.727 L 265.500 98.831 262.234 95.915 C 260.182 94.083, 257.866 93, 256 93 C 254.134 93, 251.818 94.083, 249.766 95.915 M 104.295 133.042 C 100.284 134.283, 98 137.457, 98 141.788 C 98 146.181, 99.409 148.643, 102.980 150.490 C 107.677 152.918, 111.741 152.413, 115.183 148.971 C 123.926 140.228, 136.542 139.850, 145.452 148.063 C 149.201 151.518, 150.322 152.002, 154.612 152.015 C 162.868 152.040, 171.611 154.738, 185.342 161.498 C 195.400 166.450, 211.463 173, 213.550 173 C 213.659 173, 213.967 169.287, 214.234 164.750 C 214.501 160.213, 214.894 155.865, 215.109 155.089 C 215.358 154.190, 214.047 153.139, 211.500 152.196 C 209.300 151.381, 200.525 147.447, 192 143.453 C 170.586 133.422, 167.451 132.819, 134.500 132.396 C 118.402 132.190, 106.206 132.450, 104.295 133.042 M 353 133.030 C 341.403 134.191, 336.697 135.681, 320 143.477 C 311.475 147.457, 302.700 151.381, 300.500 152.196 C 297.953 153.139, 296.642 154.190, 296.891 155.089 C 297.106 155.865, 297.499 160.213, 297.766 164.750 C 298.033 169.287, 298.439 173, 298.669 173 C 300.568 173, 320.578 164.695, 329 160.412 C 340.071 154.781, 349.320 152.039, 357.327 152.015 C 361.357 152.002, 362.654 151.500, 365.183 148.971 C 370.049 144.105, 373.818 142.571, 381 142.534 C 386.345 142.506, 388.341 142.994, 392.232 145.281 C 394.834 146.811, 397.437 148.949, 398.017 150.031 C 400.038 153.808, 410.467 151.732, 412.970 147.055 C 414.479 144.236, 414.226 138.768, 412.471 136.261 C 411.629 135.060, 409.267 133.613, 407.221 133.044 C 403.022 131.879, 364.607 131.869, 353 133.030 M 248 136.876 C 234.125 141.441, 225.679 152.703, 225.671 166.649 C 225.666 175.448, 228.882 182.793, 235.352 188.756 C 255.077 206.938, 286.737 192.439, 286.328 165.411 C 286.091 149.727, 273.554 137.098, 257.500 136.370 C 253.650 136.196, 249.375 136.423, 248 136.876 M 249.885 147.327 C 241.031 150.620, 236 157.519, 236 166.365 C 236 171.594, 237.860 176.026, 241.864 180.339 C 245.825 184.606, 249.882 186.323, 256 186.323 C 262.118 186.323, 266.175 184.606, 270.136 180.339 C 276.492 173.492, 277.812 164.746, 273.672 156.907 C 269.403 148.824, 258.100 144.271, 249.885 147.327 M 124.111 156.560 C 116.608 162.873, 121.139 175, 131 175 C 135.500 175, 138.811 172.696, 140.655 168.284 C 144.855 158.231, 132.516 149.487, 124.111 156.560 M 375.117 155.631 C 371.474 158.182, 369.666 163.457, 371.023 167.570 C 374.325 177.576, 387.707 177.479, 391.025 167.426 C 394.027 158.329, 382.970 150.130, 375.117 155.631 M 250.354 160.372 C 244.725 165.214, 248.502 175, 256 175 C 263.498 175, 267.275 165.214, 261.646 160.372 C 258.127 157.345, 253.873 157.345, 250.354 160.372 M 100.154 224.764 L 78.042 264.500 104.521 264.766 C 119.084 264.913, 142.906 264.913, 157.457 264.766 L 183.914 264.500 161.767 224.779 C 140.238 186.167, 139.547 185.078, 137.059 185.776 C 133.764 186.700, 128.214 186.694, 124.883 185.761 C 122.318 185.043, 121.820 185.830, 100.154 224.764 M 350.222 224.777 L 328.075 264.500 354.538 264.766 C 369.092 264.913, 392.899 264.913, 407.443 264.766 L 433.886 264.500 411.930 225 C 390.565 186.564, 389.899 185.512, 387.237 185.949 C 383.011 186.642, 377.764 186.568, 374.934 185.774 C 372.438 185.074, 371.769 186.129, 350.222 224.777 M 246.243 270.947 L 246.500 333.500 256 333.500 L 265.500 333.500 265.757 270.901 L 266.015 208.301 256 208.348 L 245.985 208.394 246.243 270.947 M 63.010 280.743 C 63.022 286.597, 66.658 294.799, 70.625 297.920 C 77.128 303.036, 76.704 303, 131.008 303 L 181.772 303 187.120 300.206 C 194.437 296.384, 198.455 289.982, 198.481 282.108 L 198.500 276.500 130.750 276.243 L 63 275.986 63.010 280.743 M 313.344 277.546 C 312.172 280.600, 313.817 288.170, 316.647 292.747 C 318.706 296.078, 321.061 298.211, 324.880 300.206 L 330.228 303 380.992 303 C 435.296 303, 434.872 303.036, 441.375 297.920 C 445.340 294.801, 448.978 286.597, 448.990 280.750 L 449 276 381.469 276 C 321.462 276, 313.871 276.172, 313.344 277.546 M 217.449 346.532 C 212.144 349.183, 211 352.444, 211 364.904 L 211 376 256 376 L 301 376 301 364.485 L 301 352.971 297.578 349.235 L 294.156 345.500 257.328 345.254 C 225.980 345.044, 220.046 345.234, 217.449 346.532 M 195.235 391.423 L 191.500 394.846 191.500 403.404 C 191.500 411.735, 191.586 412.048, 194.769 415.231 L 198.037 418.500 254.769 418.748 C 298.895 418.942, 312.049 418.716, 313.970 417.734 C 315.328 417.039, 317.504 414.902, 318.805 412.985 C 320.873 409.939, 321.125 408.574, 320.811 402.151 C 320.468 395.139, 320.281 394.645, 316.740 391.401 L 313.029 388 256 388 L 198.971 388 195.235 391.423" stroke="none" fill="#000000" fill-rule="evenodd"/>
</svg>