<svg xmlns="http://www.w3.org/2000/svg" width="512" height="512" viewBox="0 0 512 512" version="1.1">
	<path d="M 85.251 110.516 C 68.809 114.088, 55.185 128.203, 52.008 144.960 C 50.635 152.198, 50.635 359.802, 52.008 367.040 C 54.865 382.105, 66.098 395.045, 80.673 400.060 C 86.168 401.950, 90.652 402, 255.475 402 C 407.073 402, 425.201 401.835, 430.068 400.412 C 444.910 396.072, 457.055 382.528, 459.992 367.040 C 461.365 359.802, 461.365 152.198, 459.992 144.960 C 457.711 132.931, 448.628 120.381, 438.029 114.612 C 427.402 108.828, 434.053 109.029, 255.500 109.097 C 121.289 109.148, 90.365 109.406, 85.251 110.516 M 90.403 122.997 C 84.533 123.858, 79.500 126.013, 79.500 127.665 C 79.500 129.424, 243.710 295.795, 247.316 297.690 C 251.224 299.743, 259.390 299.969, 263.716 298.143 C 267.089 296.719, 432.500 129.594, 432.500 127.609 C 432.500 125.912, 427.447 123.913, 420.687 122.935 C 413.260 121.861, 97.749 121.920, 90.403 122.997 M 66.413 141.221 C 64.573 145.336, 64.490 149.605, 64.228 252.890 C 63.990 347.120, 64.146 361.020, 65.503 366.318 C 66.353 369.638, 67.510 372.910, 68.073 373.589 C 68.835 374.506, 83.914 359.662, 126.799 315.781 C 158.534 283.308, 184.500 256.182, 184.500 255.502 C 184.500 254.384, 70.795 137.883, 69.058 137.221 C 68.656 137.068, 67.465 138.868, 66.413 141.221 M 384.667 195.943 C 352.858 228.334, 326.824 255.143, 326.813 255.519 C 326.803 255.895, 352.916 282.895, 384.842 315.519 C 428.176 359.800, 443.152 374.522, 443.921 373.595 C 444.487 372.913, 445.648 369.631, 446.501 366.301 C 447.864 360.982, 448.018 347.226, 447.774 252.874 C 447.507 149.885, 447.418 145.326, 445.596 141.250 C 444.551 138.912, 443.427 137.011, 443.098 137.025 C 442.769 137.039, 416.475 163.552, 384.667 195.943 M 136.314 324.782 L 78.128 384.500 81.814 386.500 C 85.454 388.475, 87.631 388.503, 255 388.743 L 424.500 388.987 429.202 386.743 L 433.903 384.500 395.330 345 C 374.115 323.275, 347.699 296.357, 336.628 285.182 L 316.500 264.865 296 285.898 C 271.773 310.754, 269.054 312.537, 255.500 312.447 C 242.522 312.361, 240.033 310.713, 215.593 286.023 C 204.148 274.460, 194.720 265.014, 194.642 265.032 C 194.564 265.049, 168.316 291.937, 136.314 324.782" stroke="none" fill="#000000" fill-rule="evenodd"/>
</svg>