<svg xmlns="http://www.w3.org/2000/svg" width="512" height="512" viewBox="0 0 512 512" version="1.1">
	<path d="M 123.397 134.750 C 118.938 149.185, 113.789 157.910, 107.298 162.026 C 100.724 166.195, 97.326 167.024, 76.250 169.603 L 72 170.123 72 179.561 L 72 189 94.500 189 L 117 189 117 257.500 L 117 326 130 326 L 143 326 143 229.500 L 143 133 133.469 133 C 125.264 133, 123.862 133.244, 123.397 134.750 M 247.107 134.093 C 216.450 138.805, 197.720 160.205, 195.333 193.250 L 194.701 202 206.640 202 L 218.579 202 220.260 191.404 C 222.263 178.779, 225.245 171.791, 231.466 165.139 C 238.724 157.380, 244.001 155.500, 258.521 155.500 C 270.090 155.500, 270.793 155.624, 277.218 158.787 C 289.742 164.952, 296 175.304, 296 189.856 C 296 211.249, 288.716 219.355, 250.500 240.491 C 220.075 257.317, 206.413 269.785, 197.953 288.444 C 194.446 296.178, 191.395 308.462, 190.425 318.750 L 189.742 326 255.871 326 L 322 326 322 314.500 L 322 303 269.544 303 L 217.089 303 218.446 299.153 C 221.163 291.452, 223.975 287.266, 230.675 280.947 C 239.283 272.828, 247.729 267.263, 267.130 256.926 C 295.397 241.866, 307.678 232.298, 314.864 219.738 C 324.696 202.553, 324.173 177.622, 313.601 159.582 C 307.522 149.210, 294.489 139.597, 281 135.537 C 274.309 133.523, 255.912 132.739, 247.107 134.093 M 328 182.986 C 328 183.529, 338.576 199.315, 351.502 218.066 L 375.004 252.160 349.936 288.830 L 324.867 325.500 339.620 325.778 C 350.606 325.985, 354.675 325.729, 355.555 324.778 C 356.206 324.075, 363.167 313.375, 371.024 301 C 378.881 288.625, 386.291 277.043, 387.489 275.262 L 389.668 272.025 407.434 299.012 L 425.201 326 440.649 326 L 456.098 326 449.690 316.750 C 420.039 273.946, 405.929 252.628, 406.413 251.366 C 406.720 250.565, 417.328 235.081, 429.986 216.956 C 442.644 198.831, 453 183.538, 453 182.973 C 453 182.304, 448.021 182.042, 438.750 182.223 L 424.500 182.500 408.302 206.983 C 399.393 220.448, 391.743 231.583, 391.302 231.726 C 390.861 231.869, 383.130 220.740, 374.122 206.993 L 357.745 182 342.872 182 C 333.763 182, 328 182.382, 328 182.986" stroke="none" fill="#000000" fill-rule="evenodd"/>
</svg>