<svg xmlns="http://www.w3.org/2000/svg" width="512" height="512" viewBox="0 0 512 512" version="1.1">
	<path d="M 317.500 133.094 L 274.500 158.017 274 202.877 L 273.500 247.738 237.500 226.921 L 201.500 206.105 202 190.559 L 202.500 175.013 215 165.921 C 221.875 160.921, 227.865 156.184, 228.311 155.395 C 229.433 153.409, 228.248 150.203, 225.932 148.964 C 223.484 147.654, 222.368 148.248, 209 157.977 C 203.225 162.179, 197.954 165.945, 197.287 166.345 C 196.563 166.779, 192.335 164.310, 186.787 160.214 C 181.679 156.442, 175.594 152.095, 173.264 150.554 C 169.207 147.871, 168.920 147.822, 166.514 149.399 C 163.770 151.197, 163.298 153.733, 165.250 156.193 C 165.938 157.060, 172.249 161.917, 179.275 166.987 L 192.051 176.204 191.775 191.179 L 191.500 206.153 175 215.684 C 165.925 220.926, 148.494 230.990, 136.264 238.048 L 114.029 250.880 86.419 228.190 C 71.234 215.710, 57.928 205.353, 56.850 205.173 C 54.398 204.764, 52 206.676, 52 209.041 C 52 210.179, 62.606 219.547, 80.991 234.647 L 109.981 258.457 110.241 306.474 L 110.500 354.491 151.500 378.191 C 174.050 391.225, 193.418 402.391, 194.541 403.002 C 196.312 403.967, 202.254 400.836, 239.541 379.290 L 282.500 354.466 283 309.483 C 283.275 284.742, 283.725 264.509, 284 264.519 C 284.418 264.535, 327.468 289.222, 353.951 304.631 C 360.555 308.474, 361.634 308.818, 363.451 307.652 C 364.578 306.929, 384.067 295.634, 406.759 282.552 L 448.018 258.766 447.759 208.265 L 447.500 157.765 404.500 132.898 C 380.850 119.221, 361.275 108.063, 361 108.101 C 360.725 108.140, 341.150 119.387, 317.500 133.094 M 324 140.065 C 303.925 151.648, 286.483 161.785, 285.240 162.592 L 282.979 164.060 283.240 208.683 L 283.500 253.306 322 275.634 C 343.175 287.915, 360.971 297.858, 361.546 297.731 C 362.121 297.604, 379.774 287.600, 400.775 275.500 L 438.958 253.500 438.979 208.486 L 439 163.471 400.527 141.236 C 379.367 129.006, 361.705 119.001, 361.277 119.003 C 360.850 119.005, 344.075 128.483, 324 140.065 M 327.500 157.575 C 317.050 163.937, 307.702 170.073, 306.727 171.211 C 305.604 172.521, 305.188 174.052, 305.592 175.389 C 306.538 178.519, 310.074 182, 312.308 182 C 315.152 182, 353.827 158.122, 354.520 155.938 C 355.588 152.572, 350.815 145.989, 347.316 146.003 C 346.867 146.005, 337.950 151.212, 327.500 157.575 M 412.280 182.020 C 411.059 182.511, 409.807 183.945, 409.498 185.207 C 409.189 186.468, 409.063 197.844, 409.218 210.487 L 409.500 233.474 412.278 234.805 C 415.528 236.362, 421.423 234.946, 422.412 232.370 C 422.735 231.526, 423 220.324, 423 207.475 C 423 184.467, 422.966 184.090, 420.777 182.557 C 418.319 180.835, 415.645 180.666, 412.280 182.020 M 157.265 236.330 L 119.029 258.500 119.015 303.646 L 119 348.792 156.750 370.626 C 177.512 382.634, 195.400 392.459, 196.500 392.459 C 197.600 392.459, 215.488 382.628, 236.250 370.613 L 274 348.767 273.988 303.633 L 273.975 258.500 235.825 236.500 C 214.843 224.400, 197.186 214.424, 196.588 214.330 C 195.990 214.237, 178.294 224.137, 157.265 236.330 M 308.589 242.077 C 307.156 243.780, 306 246.401, 306 247.947 C 306 250.505, 307.677 251.762, 325.908 262.870 C 336.858 269.541, 346.493 275, 347.320 275 C 349.671 275, 354 269.171, 354 266.006 C 354 263.386, 352.457 262.227, 334.136 251.083 C 323.211 244.437, 313.576 239, 312.725 239 C 311.874 239, 310.013 240.385, 308.589 242.077 M 255.200 296.200 C 254.362 297.038, 253.996 302.537, 253.987 314.450 L 253.975 331.500 241.926 338.489 C 228.081 346.520, 226.511 347.914, 227.384 351.393 C 228.589 356.194, 231.169 355.567, 245.717 346.941 C 253.298 342.446, 260.288 338.075, 261.250 337.229 C 262.802 335.864, 263 333.525, 263 316.545 C 263 296.454, 262.696 295, 258.500 295 C 257.345 295, 255.860 295.540, 255.200 296.200" stroke="none" fill="#000000" fill-rule="evenodd"/>
</svg>