<svg xmlns="http://www.w3.org/2000/svg" width="512" height="512" viewBox="0 0 512 512" version="1.1">
	<path d="M 140.303 83.212 L 108 115.459 108 278.762 C 108 415.054, 108.227 442.609, 109.375 445.355 C 111.336 450.049, 116.638 455.758, 121.405 458.309 L 125.500 460.500 256 460.500 L 386.500 460.500 390.595 458.309 C 395.366 455.756, 400.565 450.153, 402.875 445.073 C 404.356 441.816, 404.500 425.094, 404.500 256 C 404.500 86.906, 404.356 70.184, 402.875 66.927 C 400.565 61.847, 395.366 56.244, 390.595 53.691 L 386.500 51.500 279.553 51.232 L 172.607 50.965 140.303 83.212 M 180.821 85.250 C 180.464 108.884, 179.980 110.853, 172.838 117.699 C 166.493 123.781, 163.691 124.402, 140.750 124.808 L 120 125.175 120.007 282.337 C 120.013 436.005, 120.056 439.565, 121.946 442.433 C 123.010 444.045, 124.919 445.942, 126.190 446.647 C 128.034 447.670, 154.186 447.936, 255.800 447.965 C 395.634 448.003, 387.203 448.375, 390.483 442.033 C 391.823 439.442, 392 417.707, 392 256 C 392 94.293, 391.823 72.558, 390.483 69.967 C 387.233 63.683, 392.989 64, 282.121 64 L 181.142 64 180.821 85.250 M 148 92.500 L 128.519 112 143.809 112 C 167.419 112, 168.376 111.089, 168.749 88.250 C 168.886 79.862, 168.657 73, 168.240 73 C 167.822 73, 158.714 81.775, 148 92.500 M 248.885 101.380 C 238.568 105.067, 229.155 116.458, 223.996 131.500 C 222.420 136.094, 222.046 136.476, 219.390 136.201 C 217.801 136.037, 210.606 135.812, 203.401 135.701 L 190.303 135.500 183.440 139 C 177.913 141.819, 175.986 143.458, 173.539 147.422 C 170.769 151.908, 170.500 153.106, 170.500 160.973 C 170.500 168.920, 170.794 170.194, 174.204 177.052 C 176.241 181.148, 180.106 187.194, 182.794 190.486 L 187.680 196.472 182.806 202.329 C 175.223 211.441, 170.787 221.060, 170.223 229.613 C 169.650 238.308, 171.037 242.928, 175.802 248.203 C 180.154 253.019, 184.631 255.381, 192.500 257.012 C 198.751 258.307, 212.774 257.825, 218.652 256.114 L 221.804 255.196 224.505 262.602 C 235.095 291.638, 257.799 301.106, 274.872 283.606 C 280.097 278.250, 285.398 269.319, 288.010 261.470 L 290.100 255.189 293.800 256.276 C 300.225 258.164, 318.725 257.770, 324.921 255.613 C 331.705 253.251, 338.371 247.214, 340.580 241.431 C 344.668 230.725, 340.464 215.987, 329.564 202.814 L 324.339 196.500 329.639 189.927 C 332.555 186.311, 336.416 180.236, 338.220 176.427 C 341.133 170.274, 341.500 168.542, 341.500 160.922 C 341.500 153.112, 341.228 151.902, 338.461 147.422 C 336.015 143.460, 334.085 141.817, 328.566 139 C 321.948 135.622, 321.323 135.500, 310.605 135.500 C 304.497 135.500, 297.322 135.725, 294.660 136 L 289.821 136.500 287.542 130.266 C 281.037 112.471, 267.708 99.870, 255.572 100.044 C 253.882 100.068, 250.873 100.669, 248.885 101.380 M 249.280 114.971 C 247.509 116.050, 244.730 118.771, 243.103 121.017 C 239.765 125.625, 233.650 139.624, 234.426 140.881 C 234.706 141.333, 237.087 142.511, 239.717 143.498 C 242.348 144.485, 247.051 146.565, 250.169 148.120 L 255.837 150.947 264.169 147.146 C 268.751 145.055, 273.767 142.813, 275.315 142.164 C 278.577 140.796, 278.500 140.161, 273.860 130.026 C 266.919 114.868, 258.204 109.530, 249.280 114.971 M 193.733 148.026 C 186.118 149.946, 182 154.611, 182 161.316 C 182 165.735, 187.863 177.427, 193.012 183.277 L 197.031 187.842 206.247 180.921 C 211.316 177.114, 215.742 174, 216.084 174 C 216.425 174, 217.040 169.838, 217.449 164.750 C 218.735 148.771, 218.858 149.770, 215.500 148.847 C 210.570 147.491, 197.770 147.008, 193.733 148.026 M 300.026 148.141 C 297.015 148.640, 294.193 149.407, 293.755 149.845 C 293.316 150.284, 293.408 153.760, 293.959 157.571 C 294.510 161.382, 294.969 166.637, 294.980 169.250 C 294.991 171.863, 295.346 174, 295.769 174 C 296.191 174, 300.676 177.108, 305.736 180.908 L 314.934 187.815 318.218 184.158 C 330.134 170.886, 333.241 157.336, 325.688 151.576 C 320.149 147.351, 311.654 146.214, 300.026 148.141 M 230.625 157.125 C 229.867 160.913, 229.810 165, 230.515 165 C 231.363 165, 242 158.846, 242 158.356 C 242 157.745, 233.793 154.050, 232.375 154.022 C 231.756 154.010, 230.969 155.406, 230.625 157.125 M 274.250 156.030 C 271.913 157.068, 270 158.118, 270 158.364 C 270 158.849, 280.645 165, 281.485 165 C 282.190 165, 282.133 160.913, 281.375 157.125 C 280.658 153.539, 280.062 153.447, 274.250 156.030 M 242.230 172.824 L 228.959 180.500 229.230 196.499 L 229.500 212.499 241.951 219.749 C 248.798 223.737, 255.121 227, 256 227 C 256.879 227, 263.202 223.737, 270.049 219.749 L 282.500 212.499 282.761 196.499 L 283.022 180.500 269.570 172.750 C 262.171 168.488, 255.979 165.033, 255.809 165.074 C 255.639 165.115, 249.528 168.602, 242.230 172.824 M 211.100 192.799 L 206.700 196.594 210.896 199.918 C 213.204 201.746, 215.318 203.015, 215.595 202.739 C 215.871 202.463, 215.962 199.259, 215.798 195.620 L 215.500 189.003 211.100 192.799 M 296 195.916 C 296 199.812, 296.337 202.993, 296.750 202.985 C 297.880 202.963, 305.576 196.247, 305 195.786 C 304.725 195.566, 302.587 193.911, 300.250 192.109 L 296 188.832 296 195.916 M 192.698 210.096 C 187.133 216.457, 182.905 224.662, 182.265 230.343 C 180.990 241.655, 191.183 247.087, 209.500 244.857 C 213.900 244.322, 217.805 243.572, 218.177 243.192 C 218.549 242.811, 218.324 237.239, 217.677 230.808 L 216.500 219.116 210.500 214.928 C 207.200 212.625, 202.853 209.443, 200.839 207.857 L 197.178 204.973 192.698 210.096 M 313.587 205.859 C 313.295 206.332, 309.056 209.542, 304.166 212.993 L 295.276 219.267 294.541 228.384 C 293.244 244.478, 293.059 243.288, 297 244.202 C 298.925 244.648, 304.330 245.079, 309.012 245.159 C 328.017 245.484, 334.435 236.618, 326.671 220.765 C 324.194 215.707, 316.241 205.176, 314.809 205.057 C 314.429 205.026, 313.879 205.387, 313.587 205.859 M 230.294 232.562 C 230.615 235.669, 231.074 238.407, 231.314 238.647 C 231.793 239.127, 240.017 236.122, 241.302 234.998 C 241.743 234.612, 239.316 232.635, 235.908 230.605 L 229.711 226.913 230.294 232.562 M 275.645 230.858 L 269.790 234.349 273.145 236.047 C 280.263 239.651, 280.793 239.563, 281.528 234.663 C 282.641 227.238, 282.197 226.951, 275.645 230.858 M 246 246.576 C 240.775 248.989, 235.929 250.971, 235.231 250.981 C 233.652 251.005, 234.411 254.474, 237.581 261.722 C 248.067 285.696, 263.180 286.121, 274.001 262.744 C 279.250 251.405, 279.563 252.147, 267.352 247 C 261.480 244.525, 256.411 242.430, 256.088 242.344 C 255.764 242.259, 251.225 244.163, 246 246.576 M 163.002 321.498 C 161.205 323.663, 161.460 327.745, 163.535 330.038 C 165.289 331.977, 166.851 332.006, 256.302 331.755 L 347.284 331.500 349.252 328.865 C 351.011 326.508, 351.074 325.927, 349.846 323.365 L 348.473 320.500 256.363 320.245 C 175.275 320.020, 164.104 320.170, 163.002 321.498 M 163.986 358.810 C 162.608 359.926, 161.750 361.726, 161.750 363.500 C 161.750 365.274, 162.608 367.074, 163.986 368.190 C 166.106 369.907, 170.851 370, 256.156 370 L 346.091 370 348.545 367.545 C 349.895 366.195, 351 364.375, 351 363.500 C 351 362.625, 349.895 360.805, 348.545 359.455 L 346.091 357 256.156 357 C 170.851 357, 166.106 357.093, 163.986 358.810 M 163.055 397.657 C 160.971 400.306, 161.034 402.987, 163.245 405.750 C 164.023 406.722, 176.209 407, 218.066 407 L 271.887 407 273.443 404.777 C 275.538 401.786, 275.403 399.403, 273 397 C 271.050 395.050, 269.667 395, 218.073 395 L 165.145 395 163.055 397.657" stroke="none" fill="#000000" fill-rule="evenodd"/>
</svg>