<svg xmlns="http://www.w3.org/2000/svg" width="512" height="512" viewBox="0 0 512 512" version="1.1">
	<path d="M 320.345 52.448 C 318.610 53.204, 316.889 54.775, 316.519 55.939 L 315.848 58.055 251.281 57.971 C 206.881 57.913, 186.381 58.219, 185.650 58.950 C 184.898 59.702, 185.052 60.481, 186.176 61.605 C 187.421 62.850, 188.212 62.957, 189.818 62.098 C 191.243 61.335, 210.584 61, 253.184 61 L 314.500 61 317.293 64.500 C 319.599 67.391, 320.743 68, 323.868 68 C 328.763 68, 332 64.765, 332 59.874 C 332 56.557, 329.131 52, 327.043 52 C 326.559 52, 325.564 51.791, 324.832 51.536 C 324.099 51.282, 322.080 51.692, 320.345 52.448 M 313.189 80.039 C 311.985 81.160, 311 82.510, 311 83.039 C 311 83.642, 290.128 84, 254.929 84 C 206.421 84, 198.655 83.798, 197.357 82.500 C 195.431 80.574, 193.546 80.597, 191.571 82.571 C 189.502 84.641, 189.588 85.588, 192.069 88.069 C 193.994 89.994, 194.307 90.029, 196.534 88.569 C 198.638 87.191, 205.701 87, 254.571 87 L 310.212 87 312.179 89.500 C 316.069 94.445, 325 91.627, 325 85.455 C 325 82.258, 320.850 78, 317.734 78 C 316.438 78, 314.392 78.918, 313.189 80.039 M 298.179 103.500 L 296.212 106 255.261 106 C 215.580 106, 214.254 105.938, 212.500 104 C 210.242 101.504, 206.826 101.430, 204.655 103.829 C 202.484 106.228, 202.555 109.287, 204.829 111.345 C 207.285 113.568, 210.299 113.432, 212.500 111 C 214.254 109.062, 215.580 109, 255.261 109 L 296.212 109 298.179 111.500 C 300.938 115.009, 306.113 114.944, 308.927 111.365 C 310.067 109.916, 311 108.177, 311 107.500 C 311 106.823, 310.067 105.084, 308.927 103.635 C 306.113 100.056, 300.938 99.991, 298.179 103.500 M 223.635 121.073 C 220.500 123.538, 220.121 127.895, 222.829 130.345 C 225.413 132.683, 230.677 132.490, 232.232 130 C 233.421 128.096, 234.564 128, 256.160 128 C 275.925 128, 279.231 128.225, 281.900 129.750 C 284.202 131.066, 285.384 131.235, 286.664 130.433 C 289.689 128.538, 290.493 126.378, 289.217 123.578 C 287.725 120.302, 282.669 119.957, 280.768 123 C 279.580 124.902, 278.436 125, 257.336 125 L 235.154 125 232.154 122 C 228.607 118.453, 227.165 118.296, 223.635 121.073 M 243.911 134.871 C 241.005 137.224, 240.768 142.981, 243.455 145.950 C 246.390 149.193, 252.201 148.738, 255.329 145.020 C 257.405 142.553, 258.495 142.080, 261.668 142.270 C 264.910 142.465, 265.500 142.192, 265.500 140.500 C 265.500 138.822, 264.833 138.500, 261.354 138.500 C 258.026 138.500, 256.779 137.958, 255.032 135.750 C 252.402 132.428, 247.414 132.034, 243.911 134.871 M 266.455 148.455 C 265.105 149.805, 264 151.380, 264 151.955 C 264 153.727, 245.500 153.307, 244 151.500 C 242.017 149.111, 238.122 149.638, 236.832 152.470 C 235.971 154.359, 236.005 155.301, 236.975 156.470 C 238.403 158.190, 242.556 158.528, 243.500 157 C 243.842 156.446, 248.377 156, 253.658 156 C 262.968 156, 263.265 156.072, 266 159 C 270.563 163.885, 277.918 162.446, 279.443 156.370 C 281.420 148.493, 272.097 142.812, 266.455 148.455 M 287.476 163.373 C 285.812 164.110, 283.910 165.903, 283.247 167.357 L 282.043 170 253.508 170 C 232.503 170, 224.448 169.672, 222.983 168.757 C 220.517 167.217, 217.647 168.717, 217.189 171.784 C 216.735 174.825, 220.570 176.699, 222.912 174.580 C 224.417 173.218, 228.598 173, 253.261 173 C 280.861 173, 281.887 173.069, 282.492 174.974 C 283.368 177.736, 287.806 181, 290.685 181 C 294.435 181, 298.598 178.385, 299.917 175.201 C 303.070 167.589, 295.087 160, 287.476 163.373 M 301.277 184.921 C 299.504 186.030, 297.768 188.077, 297.418 189.469 L 296.783 192 253.720 192 C 215.444 192, 210.459 191.820, 208.869 190.381 C 205.232 187.090, 199.773 190.839, 202.039 195.072 C 203.125 197.103, 207.436 197.722, 208.500 196 C 208.897 195.358, 224.821 195, 252.992 195 C 295.794 195, 296.881 195.048, 297.492 196.974 C 298.469 200.054, 302.931 203, 306.619 203 C 308.902 203, 311.002 202.077, 313.211 200.102 C 322.161 192.106, 311.489 178.531, 301.277 184.921 M 310.816 207.538 C 309.339 208.339, 307.561 210.571, 306.865 212.498 L 305.598 216 253.259 216 C 201.662 216, 200.879 215.970, 198.079 213.901 C 195.795 212.212, 194.838 212.016, 193.188 212.900 C 190.211 214.492, 189.472 217.759, 191.565 220.072 C 193.655 222.381, 196.293 222.556, 198 220.500 C 199.078 219.201, 206.371 219, 252.403 219 L 305.562 219 306.675 221.951 C 308.283 226.209, 313.551 229.221, 318.362 228.633 C 328.683 227.370, 332.374 214.372, 324.230 207.966 C 321.241 205.615, 314.738 205.408, 310.816 207.538 M 316.694 235.026 C 315.277 236.140, 313.836 237.940, 313.492 239.026 C 312.877 240.962, 311.728 241, 254.088 241 C 196.580 241, 195.271 240.957, 193.500 239 C 191.052 236.295, 186.528 236.408, 184.557 239.223 C 182.462 242.214, 182.597 244.597, 185 247 C 187.742 249.742, 191.436 249.532, 193.821 246.500 L 195.788 244 253.868 244 L 311.949 244 313.469 246.939 C 318.632 256.924, 333 254.026, 333 243 C 333 234.596, 323.282 229.844, 316.694 235.026 M 181.646 262.452 C 175.386 268.254, 179.522 278.455, 188.134 278.455 C 191.664 278.455, 192.739 277.910, 195.490 274.727 L 198.712 271 255.606 271 L 312.500 271 315.500 274.537 C 317.597 277.010, 319.620 278.252, 322.223 278.664 C 325.543 279.189, 326.343 278.857, 329.600 275.600 C 332.859 272.341, 333.189 271.545, 332.660 268.223 C 331.057 258.154, 317.618 256.984, 313.963 266.596 L 313.050 269 255.538 269 L 198.027 269 196.598 265.580 C 195.812 263.700, 194.261 261.675, 193.150 261.080 C 189.612 259.187, 184.513 259.795, 181.646 262.452 M 189.500 284.954 C 180.763 288.568, 180.369 300.574, 188.855 304.601 C 192.019 306.103, 192.873 306.136, 196.434 304.897 C 199.177 303.942, 201.089 302.392, 202.474 300 L 204.500 296.500 256.793 296.724 L 309.085 296.948 311.631 299.974 C 314.934 303.898, 319.952 304.139, 323.545 300.545 C 328.681 295.410, 324.982 287, 317.588 287 C 314.783 287, 313.529 287.698, 311.293 290.500 L 308.500 294 256.435 294 L 204.370 294 202.776 290.657 C 201.838 288.689, 199.746 286.633, 197.690 285.657 C 193.850 283.835, 192.488 283.718, 189.500 284.954 M 198.420 309.885 C 189.453 315.353, 192.968 329.328, 203.638 330.633 C 208.449 331.221, 213.717 328.209, 215.325 323.951 L 216.438 321 258.325 321 L 300.211 321 303.182 323.500 C 306.793 326.538, 307.968 326.600, 311.365 323.927 C 314.532 321.437, 314.791 317.791, 312 315 C 309.271 312.271, 305.389 312.477, 302.588 315.500 L 300.271 318 258.135 318 C 220.178 318, 216 317.841, 216 316.400 C 216 315.520, 214.470 313.270, 212.600 311.400 C 208.589 307.389, 203.419 306.837, 198.420 309.885 M 215.388 330.980 C 209.780 333.246, 207.138 341.896, 210.561 346.783 C 212.297 349.262, 217.014 352, 219.549 352 C 223.002 352, 227.885 348.762, 229.470 345.423 L 231.094 342 259.012 342 C 285.906 342, 286.969 342.073, 288 344 C 289.517 346.835, 295.516 346.773, 297.050 343.907 C 298.624 340.966, 297.397 337.138, 294.449 335.795 C 292.351 334.839, 291.487 335.003, 289.017 336.829 C 286.169 338.935, 285.246 339, 258.149 339 L 230.217 339 229.582 336.469 C 228.387 331.711, 220.821 328.785, 215.388 330.980 M 234.775 350.559 C 226.391 355.109, 229.506 368, 238.990 368 C 242.990 368, 248 364.412, 248 361.548 C 248 359.305, 268.142 359.261, 270 361.500 C 272.720 364.778, 277.452 362.217, 276.827 357.805 C 276.574 356.020, 275.767 355.429, 273.250 355.187 C 271.424 355.011, 270 355.339, 270 355.937 C 270 356.622, 266.181 356.998, 259.250 356.994 L 248.500 356.987 246.791 353.985 C 245.210 351.205, 241.504 348.945, 238.685 349.040 C 238.033 349.062, 236.274 349.746, 234.775 350.559 M 256 367 C 254.900 368.100, 254 369.355, 254 369.789 C 254 370.224, 252.762 370.561, 251.250 370.539 C 249.154 370.509, 248.500 370.975, 248.500 372.500 C 248.500 374.025, 249.154 374.491, 251.250 374.461 C 252.762 374.439, 254 374.776, 254 375.211 C 254 377.283, 258.254 380, 261.500 380 C 263.667 380, 265.762 379.238, 267 378 C 268.238 376.762, 269 374.667, 269 372.500 C 269 370.333, 268.238 368.238, 267 367 C 265.762 365.762, 263.667 365, 261.500 365 C 259.333 365, 257.238 365.762, 256 367 M 278.846 383 L 275.846 386 255.145 386 C 235.682 386, 234.342 385.880, 232.732 384 C 229.425 380.138, 224 382.002, 224 387 C 224 391.998, 229.425 393.862, 232.732 390 C 234.343 388.119, 235.682 388, 255.270 388 L 276.096 388 278.354 390.625 C 281.016 393.720, 285.148 394.081, 288.033 391.470 C 290.865 388.907, 290.558 384.584, 287.365 382.073 C 283.835 379.296, 282.393 379.453, 278.846 383 M 205.524 400.358 C 204.367 401.205, 203.667 402.955, 203.667 405 C 203.667 410.641, 210.673 413.229, 214.500 409 C 216.254 407.062, 217.580 407, 257.155 407 C 284.568 407, 298 407.339, 298 408.032 C 298 409.434, 301.991 410.815, 304.297 410.212 C 307.103 409.478, 308.572 405.551, 307.182 402.500 C 305.736 399.327, 300.794 399.050, 298.268 402 C 296.608 403.938, 295.318 404, 256.393 404 L 216.230 404 214.592 401.500 C 212.739 398.672, 208.552 398.144, 205.524 400.358 M 190.073 422.635 C 188.933 424.084, 188 426.048, 188 427 C 188 427.952, 188.933 429.916, 190.073 431.365 C 192.991 435.076, 197.367 434.927, 200.813 431 L 203.445 428 258.100 428 C 306.220 428, 312.909 428.185, 314.040 429.548 C 315.644 431.481, 318.941 431.066, 320.393 428.750 C 322.705 425.062, 316.831 421.088, 314.040 424.452 C 312.909 425.815, 306.220 426, 258.100 426 L 203.445 426 200.813 423 C 197.367 419.073, 192.991 418.924, 190.073 422.635 M 182.455 446.455 C 177.879 451.030, 180.134 458.992, 186.454 460.578 C 189.566 461.359, 194.229 459.109, 195.500 456.213 L 196.500 453.934 261.500 454.041 C 316.817 454.132, 326.544 453.937, 326.793 452.732 C 327.239 450.573, 324.202 448.398, 322.758 449.842 C 321.906 450.694, 305.216 451, 259.550 451 L 197.500 451 194.707 447.500 C 191.177 443.076, 186.253 442.656, 182.455 446.455" stroke="none" fill="#000000" fill-rule="evenodd"/>
</svg>