<svg xmlns="http://www.w3.org/2000/svg" width="512" height="512" viewBox="0 0 512 512" version="1.1">
	<path d="M 129.925 52.549 C 124.597 54.191, 118.413 59.782, 116.249 64.914 C 114.243 69.671, 114.353 77.495, 116.498 82.773 C 119.435 89.997, 128.376 96, 136.199 96 C 138.381 96, 139.343 97.456, 144.526 108.599 L 150.387 121.199 146.142 124.725 C 143.807 126.665, 140.622 130.484, 139.063 133.213 L 136.230 138.174 126.961 138.174 L 117.692 138.174 116.454 135.228 C 114.277 130.052, 108.468 125.192, 102.321 123.405 C 93.815 120.932, 87.268 122.637, 80.929 128.975 C 73.953 135.951, 72.056 145.166, 75.879 153.500 C 81.098 164.877, 93.556 169.828, 104.797 164.992 C 110.385 162.588, 115.581 157.518, 116.594 153.482 C 117.197 151.079, 117.491 151, 125.858 151.001 L 134.500 151.003 136.234 156.904 C 137.188 160.149, 139.502 164.815, 141.377 167.271 L 144.786 171.737 137.493 178.342 L 130.200 184.947 125.396 183.310 C 116.587 180.308, 105.631 184.343, 100 192.661 C 97.835 195.859, 97.500 197.456, 97.500 204.591 C 97.500 212.138, 97.753 213.187, 100.517 217.120 C 102.411 219.816, 105.575 222.489, 109.017 224.303 C 113.710 226.776, 115.305 227.122, 120.088 226.706 C 126.622 226.137, 130.410 224.383, 134.794 219.899 C 140.689 213.870, 141.583 209.467, 139.773 195.377 C 139.574 193.829, 141.700 191.223, 147.627 185.747 L 155.755 178.239 161.059 179.288 C 166.076 180.280, 172.994 179.562, 178.160 177.514 C 179.427 177.011, 180.679 178.321, 183.457 183.063 L 187.095 189.270 185.095 191.398 C 179.979 196.844, 178.477 208.052, 181.865 215.509 C 188.931 231.062, 211.105 232.377, 220.741 217.814 C 223.149 214.177, 223.500 212.673, 223.500 206 C 223.500 199.327, 223.149 197.823, 220.741 194.186 C 216.683 188.052, 211.051 184.704, 203.927 184.188 L 198.036 183.762 193.931 176.643 C 189.963 169.760, 189.881 169.439, 191.468 167.011 C 195.733 160.485, 196.500 157.564, 196.500 147.841 L 196.500 138.182 208.694 134.988 L 220.887 131.794 224.621 135.421 C 233.767 144.303, 248.644 143.317, 256.924 133.279 C 266.746 121.372, 261.593 103.648, 246.685 98.056 C 234.485 93.480, 220.093 102.454, 217.601 116.189 C 216.860 120.276, 217.503 119.984, 197.931 125.132 L 189.363 127.386 185.431 124.232 C 180.687 120.427, 174.230 118.004, 167.549 117.523 L 162.598 117.166 156.309 104.618 L 150.020 92.071 152.562 89.529 C 158.207 83.883, 160.244 75.088, 157.895 66.500 C 156.354 60.870, 148.746 53.677, 142.728 52.162 C 137.047 50.731, 135.692 50.772, 129.925 52.549 M 129.923 66.923 C 125.019 71.827, 126.402 79.539, 132.723 82.539 C 138.677 85.364, 145.357 81.944, 146.576 75.445 C 148.333 66.080, 136.713 60.133, 129.923 66.923 M 348.500 86.944 C 347.400 87.393, 344.288 91.597, 341.584 96.285 L 336.669 104.810 333.440 103.270 C 326.836 100.121, 327.134 99.745, 302.973 141.734 C 290.704 163.055, 280.486 180.718, 280.266 180.984 C 280.046 181.250, 278.119 180.462, 275.985 179.234 C 272.058 176.974, 268.445 176.423, 266.358 177.765 C 265.730 178.169, 262.242 183.588, 258.608 189.808 C 251.736 201.567, 250.678 205.566, 253.750 208.178 C 254.713 208.996, 272.512 219.445, 293.305 231.398 C 326.181 250.297, 331.444 253.019, 333.674 252.275 C 335.541 251.653, 338.111 248.218, 343.119 239.652 C 346.904 233.180, 350 226.803, 350 225.481 C 350 222.737, 347.135 219.713, 342.857 217.941 C 341.244 217.273, 340.054 216.440, 340.212 216.090 C 340.371 215.740, 343.650 209.955, 347.500 203.235 L 354.500 191.017 363 191.020 C 378.089 191.026, 389.138 195.392, 400.004 205.642 C 410.980 215.996, 417 229.760, 417 244.500 C 417 266.406, 402.615 287.388, 382.416 294.946 C 375.484 297.539, 359.951 300, 350.511 300 L 343 300 343 286.500 C 343 274.333, 342.802 272.802, 341 271 C 339.049 269.049, 337.667 269, 284.573 269 L 230.145 269 228.073 271.635 C 226.220 273.990, 226 275.634, 226 287.135 L 226 300 216.155 300 C 202.456 300, 203 299.104, 203 321.674 C 203 337.858, 203.186 339.858, 204.829 341.345 C 206.430 342.795, 209.845 343, 232.329 343 L 258 343 258 356 L 258 369 232.155 369 C 201.203 369, 203.220 368.119, 202.790 381.824 L 202.500 391.079 187.750 365.079 L 173 339.079 173 317.670 L 173 296.260 177.614 295.740 C 182.566 295.182, 186.146 293.025, 189.438 288.615 C 191.224 286.223, 191.500 284.402, 191.500 275 C 191.500 263.200, 190.725 261.125, 184.616 256.562 C 181.945 254.567, 180.494 254.491, 139.678 254.225 C 97.521 253.949, 97.498 253.950, 93 256.225 C 86.476 259.524, 85.003 263.090, 85.002 275.602 C 85 284.442, 85.284 286.129, 87.270 289.102 C 89.939 293.097, 95.185 295.996, 99.750 295.998 L 103 296 103 317.965 L 103 339.930 77.980 383.976 C 61.635 412.750, 52.563 429.742, 51.815 432.983 C 50.113 440.353, 51.990 447.571, 57.123 453.402 C 64.323 461.582, 50.969 461, 231.571 461 C 387.756 461, 391.838 460.952, 394.139 459.091 C 396.348 457.304, 396.522 456.394, 396.837 444.960 C 397.178 432.576, 396.737 427.715, 395.025 425 C 394.285 423.828, 391.063 423.391, 380.289 423 L 366.500 422.500 366.232 397.559 C 366.002 376.113, 365.735 372.364, 364.327 370.809 C 362.828 369.152, 360.509 369, 336.815 369 L 310.940 369 311.220 356.250 L 311.500 343.500 342 342.865 C 362.811 342.432, 374.883 341.753, 380 340.727 C 419.025 332.902, 447.652 306.131, 457.758 268.011 C 461.201 255.024, 461.383 235.728, 458.184 222.726 C 451.096 193.909, 432.481 170.329, 406.500 157.254 C 400.061 154.014, 385.147 149, 381.948 149 C 379.385 149, 379.531 147.363, 382.526 142.500 C 385.857 137.092, 385.661 134.696, 381.610 131.323 L 378.220 128.500 383.105 120 C 385.792 115.325, 387.992 110.963, 387.995 110.306 C 388.006 107.650, 382.737 103.724, 367.556 95.079 C 358.787 90.086, 351.362 86.029, 351.056 86.063 C 350.750 86.098, 349.600 86.494, 348.500 86.944 M 350.605 105.411 C 349.172 107.856, 348 110.246, 348 110.721 C 348 111.669, 365.249 122, 366.831 122 C 367.824 122, 373.459 113.110, 372.838 112.524 C 372.652 112.348, 369.575 110.523, 366 108.468 C 362.425 106.413, 358.085 103.884, 356.355 102.849 L 353.210 100.966 350.605 105.411 M 235.595 110.486 C 231.479 112.691, 230.068 114.933, 230.032 119.327 C 229.967 127.073, 239.724 132.014, 245.633 127.228 C 254.950 119.681, 246.072 104.874, 235.595 110.486 M 311.134 152.088 C 299.973 171.422, 291.214 187.600, 291.671 188.039 C 292.923 189.244, 329.228 210.112, 329.502 209.784 C 330.451 208.651, 369.999 139.667, 369.994 139.154 C 369.988 138.478, 334.556 117.720, 332.553 117.218 C 331.933 117.062, 322.295 132.754, 311.134 152.088 M 158.481 131.394 C 154.233 133.245, 149.284 139.231, 147.971 144.107 C 145.765 152.298, 150.022 161.374, 158.005 165.503 C 163.169 168.173, 172.697 167.231, 177.489 163.576 C 187.842 155.680, 187.157 139.861, 176.160 132.887 C 171.049 129.645, 163.883 129.040, 158.481 131.394 M 89.495 137.414 C 84.580 142.329, 85.251 148.870, 91.077 152.822 C 95.409 155.762, 99.455 155.151, 103.250 150.987 C 105.170 148.879, 106 146.894, 106 144.407 C 106 136.319, 95.176 131.733, 89.495 137.414 M 367.310 168.931 L 362.200 177.862 368.850 178.558 C 395.699 181.369, 418.359 199.495, 426.282 224.500 C 428.119 230.298, 428.499 233.818, 428.494 245 C 428.489 257.130, 428.217 259.244, 425.815 265.835 C 417.057 289.863, 398.027 305.841, 373.250 309.972 L 366 311.181 366 320.590 C 366 327.888, 366.307 330, 367.369 330 C 368.122 330, 372.659 329.316, 377.452 328.480 C 411.342 322.571, 438.037 297.293, 446.077 263.500 C 448.924 251.530, 448.433 231.282, 445.033 220.500 C 437.302 195.980, 419.507 175.933, 397.073 166.472 C 390.272 163.603, 377.294 160, 373.763 160 C 373.025 160, 370.121 164.019, 367.310 168.931 M 268.842 196.751 L 266.183 201.500 296.842 219.174 C 313.704 228.895, 328.076 236.995, 328.780 237.174 C 330.039 237.495, 335.908 228.522, 334.977 227.699 C 333.554 226.440, 273.211 192, 272.430 192.001 C 271.918 192.002, 270.304 194.139, 268.842 196.751 M 111.923 197.923 C 107.989 201.857, 107.935 206.776, 111.777 211.077 C 118.474 218.571, 130.408 212.321, 128.529 202.304 C 127.157 194.991, 117.423 192.423, 111.923 197.923 M 197.110 197.396 C 188.441 202.201, 192.068 216, 202 216 C 205.291 216, 209.095 213.718, 210.575 210.855 C 212.897 206.364, 212.341 203.141, 208.600 199.400 C 204.901 195.701, 201.300 195.073, 197.110 197.396 M 97.667 267.667 C 96.491 268.842, 96.938 281.538, 98.200 282.800 C 99.091 283.691, 109.226 284, 137.618 284 C 158.638 284, 176.548 283.727, 177.418 283.393 C 178.676 282.910, 179 281.168, 179 274.893 L 179 267 138.667 267 C 116.483 267, 98.033 267.300, 97.667 267.667 M 239 290.500 L 239 300.020 284.750 299.760 L 330.500 299.500 330.500 290.500 L 330.500 281.500 284.750 281.240 L 239 280.980 239 290.500 M 115.801 319.750 L 115.500 343.500 112.205 348.871 C 110.392 351.825, 109.042 354.373, 109.205 354.532 C 109.367 354.691, 112.875 353.684, 117 352.294 C 126.784 348.996, 136.334 349.431, 146.561 353.642 C 151.823 355.809, 155.112 356.499, 160.171 356.496 C 163.839 356.494, 167.121 356.213, 167.462 355.871 C 167.804 355.529, 166.490 352.530, 164.542 349.207 L 161 343.163 161 319.582 L 161 296 138.551 296 L 116.101 296 115.801 319.750 M 215 321.500 L 215 331 284.500 331 L 354 331 354 321.500 L 354 312 284.500 312 L 215 312 215 321.500 M 270.434 344.311 C 270.157 345.032, 270.059 350.770, 270.215 357.061 L 270.500 368.500 284.750 368.777 L 299 369.055 299 356.027 L 299 343 284.969 343 C 274.317 343, 270.816 343.316, 270.434 344.311 M 123 363.434 C 120.525 364.210, 116.025 365.765, 113 366.890 C 109.975 368.014, 105.925 368.960, 104 368.990 L 100.500 369.045 82.250 401.319 C 65.676 430.629, 64 434.029, 64 438.342 C 64 442.051, 64.538 443.629, 66.455 445.545 L 68.909 448 137.899 448 L 206.888 448 209.694 445.587 C 212.050 443.561, 212.500 442.397, 212.499 438.337 C 212.498 433.899, 210.936 430.750, 193.565 400.173 L 174.632 366.847 171.066 367.673 C 169.105 368.128, 163.675 368.500, 159 368.500 C 151.983 368.500, 149.290 368.008, 143.568 365.681 C 135.116 362.245, 128.946 361.570, 123 363.434 M 215 396.999 C 215 412.578, 215.072 413.130, 217.750 417.985 L 220.500 422.971 287.250 422.986 L 354 423 354 402 L 354 381 284.500 381 L 215 381 215 396.999 M 225 438.935 C 225 441.099, 224.561 444.024, 224.025 445.435 L 223.050 448 303.525 448 L 384 448 384 441.500 L 384 435 304.500 435 L 225 435 225 438.935" stroke="none" fill="#000000" fill-rule="evenodd"/>
</svg>