<svg xmlns="http://www.w3.org/2000/svg" width="512" height="512" viewBox="0 0 512 512" version="1.1">
	<path d="M 248.304 78.956 C 237.553 85.511, 239.614 102.373, 251.604 105.962 C 254.333 106.778, 254.254 106.833, 250.250 106.914 C 246.746 106.985, 246 107.339, 246 108.932 C 246 110.779, 250.728 115, 252.797 115 C 253.340 115, 252.933 116.670, 251.892 118.711 C 250.851 120.753, 250 123.364, 250 124.515 C 250 126.987, 254.812 137, 256 137 C 257.430 137, 262 126.738, 262 123.526 C 262 121.832, 261.242 119.363, 260.316 118.040 C 258.724 115.768, 258.733 115.577, 260.478 114.568 C 263.535 112.800, 266 110.092, 266 108.500 C 266 107.420, 264.810 106.968, 261.750 106.884 C 259.413 106.820, 258.400 106.549, 259.500 106.282 C 260.600 106.015, 263.010 104.658, 264.856 103.266 C 273.148 97.016, 272.727 85.207, 264.001 79.250 C 259.777 76.367, 252.765 76.236, 248.304 78.956 M 294.035 83.335 C 292.029 84.009, 289.607 85.931, 288.285 87.898 C 286.222 90.966, 285.998 92.472, 285.978 103.398 C 285.954 116.894, 284.512 121.879, 279.490 125.829 C 276.917 127.853, 275.083 128.517, 266 130.712 C 263.151 131.400, 261.977 132.528, 259.687 136.779 L 256.873 142 269.905 142 C 280.594 142, 282.842 141.751, 282.406 140.616 C 281.986 139.520, 282.816 139.338, 286.387 139.740 C 290.871 140.246, 294.996 138.578, 301.500 133.630 C 303.445 132.151, 303.411 132.077, 300.250 130.957 C 296.298 129.555, 295.880 127.664, 299.750 128.693 C 301.262 129.095, 305.235 129.441, 308.578 129.462 C 313.728 129.494, 315.216 129.072, 318.328 126.699 C 320.348 125.159, 322 123.520, 322 123.058 C 322 122.595, 320.144 121.474, 317.875 120.567 C 315.607 119.659, 314.003 118.664, 314.311 118.356 C 314.619 118.047, 318.748 118.311, 323.486 118.941 C 334.086 120.352, 346.359 120.402, 350.918 119.054 C 355.488 117.702, 362 113.311, 362 111.581 C 362 109.948, 356.848 106.951, 332.500 94.421 C 322.600 89.326, 312.700 84.717, 310.500 84.180 C 303.383 82.441, 297.578 82.143, 294.035 83.335 M 197.500 85.378 C 193.650 86.636, 186.938 89.321, 182.585 91.344 C 173.687 95.479, 151.809 108.320, 150.050 110.440 C 149.140 111.536, 149.601 112.356, 152.270 114.392 C 159.631 120.007, 170.938 121.651, 189.500 119.803 C 196.167 119.140, 196.346 119.176, 193.250 120.556 C 191.463 121.353, 190 122.376, 190 122.829 C 190 124.226, 194.344 127.807, 197.500 129.011 C 200.257 130.062, 208.594 129.725, 213.250 128.373 C 216.603 127.400, 214.974 129.608, 211.381 130.907 L 207.761 132.216 214.031 136.336 C 218.844 139.499, 221.280 140.461, 224.519 140.478 C 227.475 140.493, 228.596 140.874, 228.262 141.750 C 227.897 142.709, 230.708 143, 240.334 143 C 247.235 143, 253.148 142.570, 253.473 142.044 C 254.430 140.496, 251.364 134.285, 248.821 132.618 C 247.530 131.772, 244.082 130.568, 241.158 129.940 C 235.072 128.635, 229.438 124.292, 227.351 119.298 C 226.479 117.211, 226 111.940, 226 104.433 C 226 91.317, 224.657 86.908, 219.915 84.456 C 215.735 82.295, 205.665 82.709, 197.500 85.378 M 136.500 115.117 C 119.578 120.572, 82.073 128.606, 61.250 131.236 C 55.889 131.913, 52 132.868, 52 133.506 C 52 135.047, 57.901 140.481, 61.500 142.254 C 78.986 150.867, 116.366 145.546, 161.973 127.951 C 170.795 124.548, 171.102 123.236, 163.116 123.070 C 157.221 122.948, 151.669 120.669, 147.774 116.774 C 145.698 114.698, 143.662 113.041, 143.250 113.091 C 142.838 113.141, 139.800 114.053, 136.500 115.117 M 364.154 116.079 C 360.907 120.188, 357.310 121.821, 348.869 123.019 C 344.882 123.584, 341.486 124.180, 341.323 124.344 C 340.825 124.842, 365.818 133.604, 377.089 136.884 C 395.926 142.365, 410.786 145.193, 423.640 145.742 C 439.673 146.428, 447.314 144.341, 455.148 137.138 L 460.411 132.299 452.955 131.572 C 435.881 129.907, 399.323 122.356, 377.351 115.956 C 371.769 114.330, 367.044 113.025, 366.851 113.055 C 366.658 113.086, 365.444 114.447, 364.154 116.079 M 171.097 126.576 C 153.051 134.974, 129.111 142.403, 103.500 147.551 L 87.500 150.767 93 153.339 C 114.490 163.386, 160.770 155.230, 187.250 136.728 C 190.412 134.518, 193 132.363, 193 131.939 C 193 131.043, 186.509 125.818, 183.316 124.145 C 180.248 122.537, 179.423 122.701, 171.097 126.576 M 327.363 124.750 C 325.654 125.713, 322.604 127.894, 320.585 129.598 L 316.912 132.697 332.706 140.722 C 361.469 155.338, 384.058 160.558, 403.114 156.992 C 410.271 155.653, 423 151.870, 423 151.082 C 423 150.737, 416.549 149.238, 408.665 147.752 C 385.888 143.457, 365.058 137.060, 342.259 127.358 C 336.627 124.961, 331.670 123, 331.244 123 C 330.817 123, 329.071 123.787, 327.363 124.750 M 184.900 141.322 C 169.496 149.452, 154.788 155.189, 141.255 158.344 C 136.170 159.530, 132.008 160.805, 132.005 161.178 C 132.002 161.551, 134.588 162.877, 137.750 164.125 C 145.202 167.066, 161.158 167.308, 171 164.630 C 181.825 161.685, 216 144.303, 216 141.742 C 216 140.683, 202.037 133.977, 200.028 134.072 C 199.188 134.111, 192.380 137.374, 184.900 141.322 M 306.841 134.965 C 305.379 135.412, 302.048 137.247, 299.440 139.042 C 295.305 141.886, 294.905 142.457, 296.320 143.492 C 301.099 146.986, 335.434 163.308, 341 164.731 C 345.071 165.772, 351.424 166.386, 358 166.374 C 366.741 166.358, 369.379 165.969, 373.750 164.054 C 376.637 162.789, 379 161.449, 379 161.076 C 379 160.703, 374.688 159.380, 369.417 158.135 C 356.398 155.060, 344.002 150.199, 328.437 142.066 C 314.546 134.808, 311.079 133.668, 306.841 134.965 M 219 144.617 C 215.842 145.584, 176 165.494, 176 166.106 C 176 166.940, 181.334 168, 185.532 168 C 188.232 168, 189.946 166.869, 195.186 161.629 C 205.348 151.466, 216.316 147.143, 232.500 146.919 L 240.500 146.808 233.500 145.483 C 226.235 144.108, 221.573 143.829, 219 144.617 M 248.113 145.932 L 241.726 147.546 247.206 151.773 C 250.219 154.098, 252.948 156, 253.270 156 C 253.923 156, 255.457 145.080, 254.871 144.613 C 254.667 144.451, 251.626 145.044, 248.113 145.932 M 257.423 145.124 C 256.665 146.351, 257.958 158.012, 258.848 157.968 C 259.207 157.951, 261.942 155.769, 264.927 153.120 L 270.355 148.303 264.193 146.222 C 260.393 144.939, 257.798 144.518, 257.423 145.124 M 284.500 144.502 C 283.950 144.692, 280.913 145.139, 277.750 145.495 C 274.587 145.852, 272 146.574, 272 147.100 C 272 147.673, 274.504 147.804, 278.250 147.427 C 292.500 145.993, 305.911 151.015, 316.483 161.744 C 322.875 168.231, 323.159 168.393, 327.661 168.116 C 337.682 167.500, 337.214 167.026, 314.913 155.213 C 297.421 145.947, 293.029 144.014, 289.623 144.079 C 287.355 144.122, 285.050 144.313, 284.500 144.502 M 225 150.132 C 210.333 152.528, 199.896 158.573, 194.293 167.918 C 185.826 182.041, 188.253 197.633, 200.689 208.999 C 211.718 219.078, 219.360 221.407, 251.500 224.478 C 276.959 226.912, 286.621 230.050, 291.059 237.329 C 295.478 244.576, 292.427 251.245, 282.375 256.312 L 275.684 259.685 283.215 263.843 C 287.357 266.129, 291.865 268, 293.232 268 C 296.987 268, 304.336 260.971, 306.961 254.868 C 309.891 248.057, 309.550 237.741, 306.166 230.805 C 299.168 216.464, 283.180 209.114, 255.500 207.512 C 228.188 205.932, 214.245 201.176, 209.389 191.785 C 205.647 184.549, 210.156 170.431, 217.411 166.667 C 221.009 164.799, 221.714 164.751, 226.899 166.011 C 235.268 168.044, 240.820 167.795, 246.250 165.142 C 252.056 162.306, 252.444 159.763, 247.750 155.308 C 241.218 149.109, 237.057 148.163, 225 150.132 M 272.500 150.207 C 268.224 151.701, 263.057 155.781, 261.718 158.721 C 260.722 160.906, 260.877 161.482, 262.905 163.124 C 264.188 164.163, 267.722 165.735, 270.757 166.618 C 275.868 168.104, 276.741 168.096, 282.574 166.517 C 290.019 164.502, 293.513 165.049, 297.717 168.889 C 304.086 174.706, 306.023 183.934, 302.454 191.455 C 299.774 197.104, 296.626 199.118, 281.045 205.155 C 278.796 206.026, 279.460 206.524, 288.912 211.053 C 294.590 213.774, 300.091 216, 301.138 216 C 306.119 216, 316.622 206.229, 320.353 198.122 C 321.990 194.566, 322.483 191.540, 322.490 185 C 322.499 177.638, 322.113 175.711, 319.606 170.606 C 314.170 159.535, 305.733 153.674, 290.792 150.591 C 282.070 148.791, 276.864 148.681, 272.500 150.207 M 252.914 164.250 C 250.842 168.912, 250.537 171.375, 250.190 186.250 L 249.798 203 255.823 203 L 261.848 203 261.628 186.250 C 261.429 171.165, 261.176 168.978, 259.080 164.250 C 257.801 161.363, 256.415 159, 256 159 C 255.585 159, 254.197 161.363, 252.914 164.250 M 210.466 224.443 C 206.637 228.273, 203.763 235.070, 203.268 241.471 C 202.426 252.351, 208.133 262.523, 218.420 268.476 C 226.934 273.404, 234.527 275.099, 252.083 275.991 C 272.829 277.045, 278.370 279.081, 282.595 287.200 C 286.104 293.944, 283.519 300.632, 276.227 303.679 C 272.273 305.331, 272.529 305.794, 279.399 309.417 C 285.563 312.667, 288.469 312.676, 291.456 309.453 C 295.566 305.018, 297.376 299.984, 297.372 293 C 297.364 281.146, 290.387 270.687, 279.117 265.637 C 273.220 262.994, 260.909 261, 250.486 261 C 239.320 261, 225.781 255.996, 221.614 250.328 C 219.254 247.118, 219.166 240.922, 221.432 237.464 C 222.369 236.034, 225.123 233.462, 227.553 231.750 C 229.982 230.037, 231.820 228.486, 231.636 228.303 C 231.452 228.119, 227.129 226.661, 222.029 225.062 L 212.755 222.154 210.466 224.443 M 251 243.500 L 251 258 256 258 L 261 258 261 243.500 L 261 229 256 229 L 251 229 251 243.500 M 220.061 276.211 C 212.476 288.271, 212.520 298.764, 220.191 307.480 C 226.926 315.131, 232.605 317.101, 253.352 318.983 C 259.871 319.575, 266.642 320.659, 268.399 321.393 C 277.106 325.031, 279.752 334.796, 273.852 341.516 C 272.120 343.489, 269.321 345.817, 267.631 346.691 L 264.560 348.279 269.943 350.655 C 272.904 351.962, 276.118 352.780, 277.086 352.473 C 280.003 351.547, 285.797 344.394, 286.928 340.321 C 290.597 327.108, 283.707 314.057, 270.407 309.027 C 266.193 307.434, 261.060 306.582, 252.500 306.057 C 239.329 305.248, 232.127 302.974, 229.970 298.943 C 227.190 293.750, 229.861 284.312, 235.160 280.600 C 237.036 279.286, 236.823 279.077, 231.619 277.130 C 222.515 273.724, 221.667 273.657, 220.061 276.211 M 252 292 L 252 305 256 305 L 260 305 260 292 L 260 279 256 279 L 252 279 252 292 M 226.873 323.277 C 222.004 333.685, 224.710 344.757, 233.816 351.695 C 238.645 355.373, 244.979 357.473, 255.809 358.987 C 267.696 360.650, 271 363.378, 271 371.530 C 271 375.309, 266.448 381.406, 262.751 382.579 C 260.695 383.232, 260.687 383.298, 262.504 384.627 C 265.563 386.864, 270.760 386.331, 273.600 383.490 C 279.197 377.894, 280.537 368.806, 276.879 361.250 C 273.912 355.122, 269.112 352.286, 257.884 350.027 C 243.123 347.058, 239.202 344.925, 236.393 338.335 C 235.256 335.668, 235.263 334.443, 236.438 330.539 C 237.205 327.991, 238.391 325.234, 239.074 324.411 C 240.649 322.513, 239.704 321.664, 233.873 319.735 L 229.246 318.205 226.873 323.277 M 252.667 320.667 C 251.620 321.713, 251.878 347, 252.935 347 C 253.449 347, 255.024 346.561, 256.435 346.025 C 259 345.050, 259 345.049, 259 332.525 L 259 320 256.167 320 C 254.608 320, 253.033 320.300, 252.667 320.667 M 236.145 359.325 C 235.540 360.054, 234.536 362.866, 233.913 365.575 C 232.630 371.151, 233.772 377.262, 236.794 380.994 C 237.766 382.195, 244.173 385.964, 251.031 389.370 C 261.868 394.752, 263.738 396.045, 265.316 399.248 C 268.574 405.857, 264.952 417, 259.545 417 C 258.245 417, 258 415.255, 258 406 C 258 395.017, 257.996 395, 255.570 395 L 253.139 395 253.719 406 C 254.367 418.284, 253.683 419.410, 248.636 414.364 C 245.046 410.773, 244.966 403.350, 248.452 397.253 C 250.832 393.091, 250.841 392.985, 248.920 391.957 C 247.841 391.380, 246.515 391.182, 245.972 391.517 C 243.700 392.922, 241.677 398.800, 241.677 404 C 241.677 410.911, 244.062 415.710, 248.396 417.521 C 253.189 419.523, 254.170 421.248, 254.770 428.722 C 255.427 436.905, 256.824 434.659, 256.930 425.250 C 256.995 419.457, 257.165 419, 259.250 418.996 C 266.071 418.985, 271.750 410.344, 270.752 401.493 C 269.761 392.699, 266.083 389.221, 250.776 382.608 C 241.402 378.557, 238.651 371.741, 243.503 364.590 L 246.007 360.901 242.536 359.450 C 238.263 357.665, 237.535 357.651, 236.145 359.325 M 252.370 364.250 C 252.701 365.488, 252.979 369.988, 252.986 374.250 C 253 381.846, 253.050 382, 255.500 382 L 258 382 258 372 L 258 362 254.883 362 C 252.139 362, 251.839 362.269, 252.370 364.250" stroke="none" fill="#000000" fill-rule="evenodd"/>
</svg>