<svg width="45" height="45" viewBox="0 0 45 45" fill="none" xmlns="http://www.w3.org/2000/svg">
<g clip-path="url(#clip0_1_620)">
<rect width="45" height="45" rx="10" fill="#FAFAFA"/>
<g clip-path="url(#clip1_1_620)">
<path d="M22.4997 16.1297C21.9709 16.1297 21.5182 15.9414 21.1417 15.5649C20.7649 15.1883 20.5766 14.7356 20.5766 14.2068C20.5766 13.678 20.7649 13.2253 21.1417 12.8487C21.5182 12.472 21.9709 12.2836 22.4997 12.2836C23.0285 12.2836 23.4812 12.472 23.8578 12.8487C24.2345 13.2253 24.4229 13.678 24.4229 14.2068C24.4229 14.7356 24.2345 15.1883 23.8578 15.5649C23.4812 15.9414 23.0285 16.1297 22.4997 16.1297ZM19.7955 32.6563V19.0745H13.6255V17.512H31.374V19.0745H25.2039V32.6563H23.6417V26.6667H21.3578V32.6563H19.7955Z" fill="#18181A"/>
</g>
<mask id="path-3-inside-1_1_620" fill="white">
<path d="M0 10C0 4.47715 4.47715 0 10 0H35C40.5228 0 45 4.47715 45 10V35C45 40.5228 40.5228 45 35 45H10C4.47715 45 0 40.5228 0 35V10Z"/>
</mask>
<path d="M10 0V1H35V0V-1H10V0ZM45 10H44V35H45H46V10H45ZM35 45V44H10V45V46H35V45ZM0 35H1V10H0H-1V35H0ZM10 45V44C5.02944 44 1 39.9706 1 35H0H-1C-1 41.0751 3.92487 46 10 46V45ZM45 35H44C44 39.9706 39.9706 44 35 44V45V46C41.0751 46 46 41.0751 46 35H45ZM35 0V1C39.9706 1 44 5.02944 44 10H45H46C46 3.92487 41.0751 -1 35 -1V0ZM10 0V-1C3.92487 -1 -1 3.92487 -1 10H0H1C1 5.02944 5.02944 1 10 1V0Z" fill="#EDEDED" mask="url(#path-3-inside-1_1_620)"/>
</g>
<defs>
<clipPath id="clip0_1_620">
<rect width="45" height="45" rx="10" fill="white"/>
</clipPath>
<clipPath id="clip1_1_620">
<rect width="25" height="25" fill="white" transform="translate(10 10)"/>
</clipPath>
</defs>
</svg>
