<svg width="18" height="18" viewBox="0 0 18 18" fill="none" xmlns="http://www.w3.org/2000/svg">
<path d="M13.4637 10.5062C13.754 10.6639 14.0627 10.6968 14.3889 10.6059C14.716 10.5159 14.9637 10.331 15.1331 10.0533C15.3392 9.70196 15.375 9.33905 15.2425 8.96452C15.1089 8.58902 14.8486 8.33449 14.4615 8.20191L8.34704 6.16957L7.69379 7.45769L13.4637 10.5062ZM13.065 15.2425V11.1236L6.73182 7.78479L7.04054 7.14993L2.90329 5.08082L2.25004 6.38732L7.25829 10.1617V15.2425H13.065ZM11.9762 7.25832C12.6778 7.25832 13.2759 7.01057 13.7724 6.5141C14.2679 6.0186 14.5166 5.41955 14.5166 4.71791C14.5166 4.01627 14.2679 3.41721 13.7724 2.92171C13.2759 2.42524 12.6778 2.17749 11.9762 2.17749C11.2746 2.17749 10.6755 2.42524 10.179 2.92171C9.68354 3.41721 9.43579 4.01627 9.43579 4.71791C9.43579 5.41955 9.68354 6.0186 10.179 6.5141C10.6755 7.01057 11.2746 7.25832 11.9762 7.25832Z" fill="white"/>
</svg>
